<?xml version="1.0" encoding="utf-8"?>
<!-- Generator: Adobe Illustrator 26.3.1, SVG Export Plug-In . SVG Version: 6.00 Build 0)  -->
<svg version="1.1" id="Layer_1" xmlns="http://www.w3.org/2000/svg" xmlns:xlink="http://www.w3.org/1999/xlink" x="0px" y="0px"
	 viewBox="0 0 205.9 123.4" enable-background="new 0 0 205.9 123.4" xml:space="preserve">
<g>
	<polygon fill="#009BA3" points="78.5,28 101.8,40.2 101.8,11.8 78.5,1.4 	"/>
	<polygon fill="#A5D7DC" points="101.8,11.8 101.8,40.2 125.2,28 125.2,1.4 	"/>
	<path fill="#014548" d="M17.9,64.9c0-3.1,0.1-6.7,0.1-8.7h-0.1c-0.9,3.8-2.7,9.9-4.5,15.7H10c-1.3-5-3.2-12-4.1-15.7H5.8
		C6,58.2,6,62,6,65.2v6.6H2.4V53.3h5.9c1.4,4.8,3,10.9,3.6,13.6h0c0.5-2.4,2.5-8.9,4-13.6h5.7v18.4h-3.8V64.9z M31.3,63.8v4.7H41
		l-0.5,3.3H27.4V53.3h13.1v3.3h-9.2v3.9h8.8v3.3H31.3z M45.7,53.3h12.9v3.3h-9v4.5H58v3.3h-8.4v7.4h-3.9V53.3z"/>
	<path fill="#014548" d="M69.8,65.4l2.9,2.8h-2.9L68.6,67c-0.8,0.9-1.7,1.4-3.2,1.4c-2.4,0-3.5-1.5-3.5-3c0-1.3,0.7-2.2,2.1-2.9
		c-0.6-0.6-1.1-1.4-1.1-2.3c0-1.6,1.2-2.9,3.1-2.9c1.9,0,3,1.3,3,2.6c0,1.1-0.7,1.9-2,2.6l1.6,1.5l1.9-2.6h2.3L69.8,65.4z
		 M65.1,63.5c-0.7,0.5-1,1.1-1,1.6c0,0.7,0.5,1.4,1.5,1.4c0.7,0,1.1-0.2,1.7-0.8L65.1,63.5z M67,60c0-0.6-0.3-1.1-1-1.1
		c-0.6,0-1,0.5-1,1.2c0,0.6,0.4,1,0.9,1.5C66.5,61.2,67,60.7,67,60z"/>
	<path fill="#014548" d="M75.9,53.3h7.6c3.9,0,6.6,2.2,6.6,5.7c0,4-3,5.8-6.7,5.8h-3.5v6.9h-4V53.3z M82.9,61.7
		c1.8,0,3.1-0.7,3.1-2.6c0-1.9-1.4-2.6-3.1-2.6h-3.1v5.2H82.9z M96.7,67.5l-1.4,4.3h-3.9l6.3-18.4h5l6.5,18.4H105l-1.5-4.3H96.7z
		 M100,56.2L100,56.2c-0.5,1.8-1.4,4.7-2.4,8h5C101.3,60.4,100.5,57.9,100,56.2z M116.9,64.4v7.4H113V53.3h8.1c4,0,6.2,2.2,6.2,5.1
		c0,2.5-1.3,3.8-2.7,4.4c0.9,0.3,2.3,1.3,2.3,4.6v0.9c0,1.2,0,2.6,0.3,3.5h-3.8c-0.3-0.8-0.4-2.2-0.4-4.1v-0.3c0-2-0.5-3-3.5-3
		H116.9z M116.9,61.2h3.3c2.2,0,3-0.8,3-2.4c0-1.5-1-2.3-2.9-2.3h-3.4V61.2z M136.1,56.6h-5.6v-3.3h15.2v3.3h-5.6v15.2h-4V56.6z
		 M149.5,71.8V53.3h4.9c2.3,4.1,6.6,11.6,7.4,13.6h0.1c-0.2-1.9-0.2-5.1-0.2-8.1v-5.5h3.6v18.4h-4.7c-2-3.6-6.7-12.2-7.6-14.3h-0.1
		c0.1,1.6,0.2,5.4,0.2,8.7v5.6H149.5z M174.9,63.8v4.7h9.7l-0.5,3.3H171V53.3h13.1v3.3h-9.2v3.9h8.8v3.3H174.9z M193.1,64.4v7.4
		h-3.9V53.3h8.1c4,0,6.2,2.2,6.2,5.1c0,2.5-1.3,3.8-2.7,4.4c0.9,0.3,2.3,1.3,2.3,4.6v0.9c0,1.2,0,2.6,0.3,3.5h-3.8
		c-0.3-0.8-0.4-2.2-0.4-4.1v-0.3c0-2-0.5-3-3.5-3H193.1z M193.1,61.2h3.3c2.2,0,3-0.8,3-2.4c0-1.5-1-2.3-2.9-2.3h-3.4V61.2z"/>
	<path fill="#009BA3" d="M44.6,90.5c-0.3,0-0.3-1.7-0.3-3.6c0-0.4,0-0.6-0.3-0.6c-0.7,0-0.6,0.2-0.7,1c-0.2,1.9-0.3,3.1-0.3,3.2
		c-1.1,0-2.7-0.4-4.4-0.4c-0.7,0-0.8,0.3-0.8,0.9c0,1,1.6,2.7,5.2,2.7c0.3,0,0.2,2.3,1.6,10.4c0.1,1.6,0.6,1.7,0.9,1.7
		c0.3,0,0.4,0,0.4-0.4c0-0.2,0-0.4,0-0.7c-0.9-4.6-1.5-7.9-1.5-10.4c0-0.2,0-0.4,0-0.5c4.6-0.6,6.1-1.5,6.1-1.9
		C50.7,91.1,46.9,91.1,44.6,90.5"/>
	<path fill="#009BA3" d="M38.1,104.8c-2.9-3.9-6-9-6-14.3c0-5.7,3-7.1,3-7.9c0-0.4-0.3-0.4-0.5-0.4c-2.6,0.6-3.7,6.5-3.7,8.7
		c0,3,0.9,6.1,3,9.7c4.3,7.6,8.6,10.3,11.6,15.6c0.3,0.5,0.4,1.1,0.4,1.6c0,0.9-0.4,1.7-1.4,2.2c-1.4,0.7-3,0-3,1.3
		c0,0.5,0.3,0.7,0.9,0.7c0.8,0,1.9-0.4,2.6-0.7c1.7-0.8,2.4-2,2.4-3.3c0-0.7-0.2-1.4-0.6-2.2C44.6,111.9,40.7,108.3,38.1,104.8"/>
	<path fill="#009BA3" d="M182.8,100.7c0,0-0.1,0-2,1.1c-1.6,0.8-3.6,1.9-6,1.9c-1.3,0-1.4-0.8-1.4-1.8c0-0.4,0-0.8,0-1.2
		c0-1-0.6-1.8-1.3-1.8c-0.7,0-1.2,0.3-1.6,0.3c-1.5,0-1.5-2.2-2.2-2.2c-1.4,0.1-1,1.2-1.5,2.2c-0.3,0.7-0.8,1.8-1.5,2.6
		c-0.5,0.5-1.1,1-1.8,1.4c0,0,0,0,0,0c-0.2,0-0.7,0.4-1.9,0.4c-2.2,0-3.4-2-3.4-2.3l0.1-0.1c0.6-0.6,2.2-2.2,2.2-3.5
		c0-0.7-0.5-1.3-1.2-1.3c-1.7,0-2.5,1.9-2.5,3.6c0,0.3,0,0.7,0.1,1c-1.5,1.2-3.2,2.2-4.8,2.2c-3.2,0-3.6-3.7-3.6-7.1
		c0-5.5,0-5.5,3.8-6.2c3.8-0.7,9.1-1.2,17.2-1.5c0.2,0,0.5-0.4,0.5-0.5c0-0.4-0.5-0.4-1-0.4h-0.4c-14.5,0-16.3,0.5-17.8,0.5
		c-0.8,0-1.2-0.3-2-0.3c-0.4,0-0.8,0.1-1.1,0.5c-1.2,0.4-6.1,0.3-6.1,1.8c0,0.9,0.7,1.2,1.7,1.2s2.1-0.3,3-0.3
		c0.4,0,0.5,0.2,0.8,0.2c-0.1,0.5-0.1,2.5-0.1,3.8c0,4.1,0.5,9.4,4.4,9.4c2.3,0,3.9-0.9,5.8-2.2c0.3,0.6,1.5,2.6,4.2,2.6
		c1,0,1.9-0.2,2.4-0.4c0.4-0.1,1.4-0.6,2.3-1.5c1.3-1.3,2.2-3.2,2.2-3.2c0.3,0,1,0.9,2.2,0.9c0.2,0,0.9-0.1,1.1-0.1
		c1.4,0-0.9,4.8,3,4.8c3.3,0,5.9-1.2,7.5-2.2c1-0.6,1.3-1.5,1.3-1.9C183.4,100.9,183.1,100.7,182.8,100.7 M157.8,100.2
		c0-0.1,0-0.2,0-0.3c0-0.8,0.4-2.2,1-2.2c0.2,0,0.3,0.1,0.3,0.3C159.1,98.5,158.5,99.5,157.8,100.2"/>
	<path fill="#009BA3" d="M78.8,103.1c-0.1,0-0.8,0.4-1.8,0.4c-1.5,0-2.6-2.1-3-3.8c-0.1-0.5-0.4-1.1-1.1-1.1c-0.3,0-0.5,0.3-0.7,0.8
		c-0.8,2.3-2.2,3.7-3.4,3.7c-1.7,0-2.9-1.9-3.1-4.9c0-0.4-0.4-0.7-0.9-0.7c-0.4,0-0.7,0.6-0.7,0.9c-0.6,1.9-2.5,3.8-4.4,4.8
		c-0.4,0.2-1.2,0.5-2.1,0.5c-1,0-2.7-0.7-3.1-2.2c2.4-0.8,3-2.9,3-4.2c0-1-0.7-1.8-1.6-1.8c-2.2,0-3,2.1-3,4.4
		c0,1.4,1.1,4.8,4.7,4.8c0.9,0,2.4-0.4,2.9-0.7c0.5-0.2,1.1-0.6,1.9-1.3c1.5-1.2,2.2-2.4,2.4-2.4c0.2,0.4,0.9,4.1,4,4.1
		c1.9,0,3.5-1.5,4.2-3.4c0.7,1.2,1.8,3.4,4,3.4c0.9,0,2.5-0.4,2.5-0.8C79.3,103.5,79,103.1,78.8,103.1 M54.2,100.5
		c-0.1,0-0.2-0.4-0.2-0.9c0-1,0.4-2.5,1.5-2.5c0.5,0,0.5,0.6,0.5,0.8C56,99.1,54.8,100.5,54.2,100.5"/>
	<path fill="#009BA3" d="M145.3,103.1c-0.1,0-0.7,0.4-1.6,0.4c-2.6,0-2.3-3.7-4.5-3.7c-0.4,0-0.4-0.2-0.4-0.4v-0.3
		c0-1.6-0.7-3.4-2.3-3.4c-2,0-3.3,2.7-3.7,3.8c-0.1,0.1,0,0.3-1.9,2.2c-0.3,0.3-0.7,0.7-1.1,1c-0.3,0.2-0.5,0.4-0.8,0.5
		c-0.3,0.1-0.7,0.3-1,0.3c-1.5,0-1.6-1.2-1.6-2.3c0-0.4,0-0.9,0-1.3c0-0.8-0.1-1.5-1-1.5c-0.6,0-1.5,0.5-2.4,0.5
		c-0.2,0-0.4,0-0.5-0.1c0-0.1,0-0.2,0-0.3c0-1-0.5-1.7-1-1.7c-0.4,0-0.8,0.7-0.8,1.2c0,0.5,0.1,0.7,0.5,1.3c-1.4,2.8-3,4.2-4.4,4.2
		c-1.2,0-2.3-0.9-2.6-1.9c2.4-0.8,3.1-2.9,3.1-4.2c0-1-0.7-1.8-1.6-1.8c-2.1,0-3,1.9-3.1,3.9c-0.4,0.2-0.9,0.3-1.4,0.3
		c-0.9,0-2.3-0.4-2.4-1.3c-0.1-0.5-0.1-2.8-0.8-2.8s-1.1,0.6-1.1,1.5c0,0.6,0.2,1.2,0.5,1.9c-0.2,1.5-1.1,3.6-2.9,3.6
		c-1.8,0-2.5-2.3-2.5-3.8c0-0.1,0-0.2,0-0.2c1.5-3.8,2.8-8.3,2.8-12.6c0-1.4-0.2-2.6-1.5-2.6c-2.7,0-2.9,6.3-2.9,10.1
		c0,2.1,0.1,3.8,0.2,4.8c-0.2,1.1-2,3.7-3.7,4.5c-0.3,0.1-0.7,0.3-1,0.3c-1.5,0-1.6-1.2-1.6-2.3c0-0.4,0-0.9,0-1.3
		c0-0.8-0.1-1.5-1-1.5c-0.6,0-1.5,0.5-2.4,0.5c-0.2,0-0.4,0-0.5-0.1c0-0.1,0-0.2,0-0.3c0-1-0.5-1.7-1-1.7c-0.4,0-0.8,0.7-0.8,1.2
		c0,0.5,0.1,0.7,0.5,1.3c-1.4,2.8-3,4.2-4.4,4.2c-1.2,0-2.3-0.9-2.6-1.9c2.4-0.8,3.1-2.9,3.1-4.2c0-1-0.7-1.8-1.6-1.8
		c-2.2,0-3.1,2.1-3.1,4.4c0,2.7,1.9,4.5,4.1,4.5c1.9,0,4-1.3,5.4-4.6c0,0,0-0.1,0.1-0.1c0.1,0,0.6,0.1,1,0.1c0.5,0,1.1-0.2,1.7-0.2
		c1,0-0.8,4.7,3,4.7c0.4,0,1.1-0.2,1.6-0.4c0.8-0.3,2.5-1.6,3.6-3.5c0.5,1.7,1.5,3.6,3.5,3.6c2.2,0,3.4-2.3,3.9-4.1
		c0.2,0.3,1.5,0.9,2.9,0.9c0.5,0,0.9-0.1,1.4-0.2c0.3,2.3,2.1,3.8,4,3.8c1.9,0,4-1.3,5.4-4.6c0,0,0-0.1,0.1-0.1c0.1,0,0.6,0.1,1,0.1
		c0.5,0,1.1-0.2,1.7-0.2c1,0-0.8,4.7,3,4.7c0.4,0,1.2-0.2,1.6-0.4c0.5-0.2,1.3-0.7,2.1-1.4c0.2-0.2,0.8-0.8,0.9-0.8
		c0.8,0,0.9,2.4,3.1,2.4c1.9,0,2.5-2.7,3.5-2.7c1.3,0,2.2,3,4.5,3c1,0,2.4-0.5,2.4-0.8C145.9,103.6,145.6,103.1,145.3,103.1
		 M81.6,99.7c0-1,0.5-2.5,1.7-2.5c0.5,0,0.5,0.6,0.5,0.8c0,1.3-1.5,2.7-2.1,2.7C81.6,100.5,81.6,100.1,81.6,99.7 M101.4,95
		c0-2.6,0.1-9.6,1.5-9.6c0.4,0,0.4,0.7,0.4,1.2c0,2.2-0.8,7.5-1.9,10.1C101.4,96.7,101.4,95.5,101.4,95 M113.7,99.7
		c0-1,0.5-2.5,1.7-2.5c0.5,0,0.5,0.6,0.5,0.8c0,1.3-1.5,2.7-2.1,2.7C113.8,100.5,113.7,100.1,113.7,99.7 M135.2,102.7
		c-0.8,0-1.5-1-1.5-1.6c0-0.7,0.7-4.1,2.6-4.1c0.8,0,1.1,0.9,1.1,2C137.5,100.6,136.5,102.7,135.2,102.7"/>
</g>
</svg>
