<?xml version="1.0" ?><svg viewBox="0 0 32 32" xmlns="http://www.w3.org/2000/svg"><defs><style>.cls-1{fill:#fff;opacity:0;}.cls-2{fill:none;stroke:#231f20;stroke-linecap:round;stroke-linejoin:round;stroke-width:2px;}</style></defs><title/><g id="Suitcase"><rect class="cls-1" height="32" width="32"/><rect class="cls-2" height="15" rx="2" ry="2" width="14" x="9" y="12"/><line class="cls-2" x1="12" x2="12" y1="29" y2="27"/><line class="cls-2" x1="20" x2="20" y1="29" y2="27"/><path class="cls-2" d="M14,3h4a2,2,0,0,1,2,2v7a0,0,0,0,1,0,0H12a0,0,0,0,1,0,0V5A2,2,0,0,1,14,3Z"/><line class="cls-2" x1="12" x2="20" y1="6" y2="6"/><line class="cls-2" x1="13" x2="13" y1="16" y2="23"/><line class="cls-2" x1="19" x2="19" y1="16" y2="23"/></g></svg>