<?xml version="1.0" encoding="utf-8"?>
<!-- Generator: Adobe Illustrator 28.0.0, SVG Export Plug-In . SVG Version: 6.00 Build 0)  -->
<svg version="1.1" id="Layer_5" xmlns="http://www.w3.org/2000/svg" xmlns:xlink="http://www.w3.org/1999/xlink" x="0px" y="0px"
	 viewBox="0 0 979.6 681.1" enable-background="new 0 0 979.6 681.1" xml:space="preserve">
<g>
	<g>
		<path fill="#003399" d="M948.9,528.7c-4.6-1.2-9.6-1-14.4-1.1c-9-0.1-10.4-1.3-10.9-10.3c-1.1-21.1-4.3-41.9-9.8-62.3
			c-3.2-12.2-6.3-24.4-10.4-36.3c-5-14.5-10.3-28.9-16.8-42.8c-6.8-14.5-14.3-28.7-22.8-42.2c-9.6-15.3-20-30.2-31.2-44.5
			c-16.4-21-34.6-40.4-55.4-57.1c-15.9-12.7-32.2-25-48.9-36.5c-12.1-8.3-25.1-15.4-38-22.2c-11.3-5.9-23-11.2-34.8-16
			c-10.9-4.4-22.1-8.2-33.3-11.8c-10-3.2-20.1-6-30.3-8.5c-9.3-2.3-18.7-3.8-28-5.8c-0.8-0.2-1.4-0.4-2-0.6
			c6.5-11.7,10.1-25.2,10.1-39.5c0-45.4-36.8-82.1-82.1-82.1c-45.4,0-82.1,36.8-82.1,82.1c0,13.6,3.3,26.4,9.1,37.7
			c-0.6,0.2-1.3,0.4-2.2,0.6c-18.3,4.2-36.8,7.6-54.8,12.6c-16.3,4.5-32.4,10.2-48.1,16.4c-12.4,4.9-24.5,10.9-36.2,17.4
			c-15.5,8.6-31.2,17.2-45.6,27.6c-17.8,12.8-34.9,26.8-51.4,41.4c-22,19.5-40.8,42-57.7,66.1c-13.9,19.7-26.4,40.3-36.2,62.4
			c-6,13.6-12.2,27.1-17.1,41.1c-4.8,13.7-8.1,27.9-11.8,42c-5.1,19.6-8.4,39.6-9.4,59.9c-0.5,10.2-0.9,10.4-10.9,11.2
			c-12.9,1-23.7,11-22.5,24.8c0.6,7.3,4.8,12.3,9.7,16.8c33.9,30.8,67.9,61.6,102,92.2c7.7,6.9,16.7,10.6,27.5,10.6
			c112.3-0.2,224.6-0.1,336.9-0.1c113.7,0,227.5,0,341.2,0c7.8,0,14.8-2.9,20.2-7.6c23.6-20.5,46.7-41.6,69.9-62.5
			c12.5-11.3,25-22.6,37.4-34C973,554.1,967,533.6,948.9,528.7z M450.5,91.2c0-21.7,17.6-39.4,39.4-39.4c21.7,0,39.4,17.6,39.4,39.4
			c0,21.7-17.6,39.4-39.4,39.4C468.1,130.6,450.5,113,450.5,91.2z M91.1,519.8c2.6-17.9,5.1-35.9,8.8-53.6
			c2.9-13.9,6.6-27.8,11.7-41c6.3-16.5,14.1-32.6,21.9-48.5c9.3-19.1,21.3-36.6,34.3-53.4c15.2-19.8,32.4-37.8,51.1-54.5
			c17.8-15.9,36.9-30,57.5-42.1c13.5-7.9,27.5-15.1,41.7-21.5c14.4-6.5,29.1-12.5,44.2-17.3c15.4-4.8,31.3-8,47.1-11.7
			c21.7-5,43.9-6.3,66.1-7c25.8-0.8,51.5,0.7,76.9,5.5c11.3,2.1,22.7,3.9,33.8,6.9c13.2,3.5,26.3,7.9,39.2,12.4
			c9.6,3.4,19.1,7.2,28.2,11.5c11.5,5.4,23.1,11,34,17.6c13.4,8,26.6,16.7,39.3,25.9c22,15.9,42.2,34,59.4,54.9
			c13.1,15.8,25.6,32.2,36.9,49.3c8.6,12.8,15.2,27,22.2,40.8c4.6,9.1,8.8,18.4,12.1,28c4.5,13,8.3,26.2,11.8,39.4
			c2.8,10.6,4.8,21.5,6.7,32.3c1.5,8.6,2.3,17.3,3.1,26c0.6,6.6-0.9,7.9-7.7,7.9c-108.1,0-216.2,0-324.3,0c-20.7,0-41.5,0-62.2,0v0
			c-128.8,0-257.7,0-386.5,0C91.9,527.6,90.2,526.2,91.1,519.8z M878.6,579.2c-5.1,5-10.5,9.6-15.8,14.4
			c-10.3,9.3-20.6,18.8-31.1,27.9c-2,1.8-5.1,2.8-7.8,3.1c-3.8,0.5-7.8,0.2-11.6,0.2c-217.2,0-434.5,0-651.7,0.1
			c-5.9,0-10.8-1.2-15.3-5.5c-14.3-13.4-29.1-26.2-43.5-39.5c-1.4-1.3-1.7-3.8-2.5-5.8c1.7-0.5,3.5-1.3,5.2-1.4
			c4.4-0.1,8.7,0.1,13.1,0.1c124.1,0,248.2,0,372.3,0c124.7,0,249.5,0,374.2,0c4,0,8.1-0.3,12.1-0.2c1.4,0,4.1,0.9,4.1,1.4
			C880.2,575.8,879.8,578.1,878.6,579.2z"/>
		<g>
			<path fill="#E31E24" d="M247.8,295c-18.7,14.8-35.1,32.1-50,50.7c-8.2,10.2-15.6,21-22.9,31.8c-4.2,6.3-7.6,13.1-11.2,19.8
				c-3.8,7.2-7.5,14.5-11.1,21.9c-3.6,7.5-7.4,14.9-8.8,23.3c-2.2,13.2,8.8,27.8,22.7,25.6c10.1,1.8,16.3-4.7,20.8-12.6
				c4-6.9,6.7-14.6,9.9-22c7-16.6,16.7-31.7,27.1-46.2c14.7-20.4,31.7-38.8,50.7-55.3c9.2-8,13-18.1,6.4-29.2
				C274.5,291.3,259,286.1,247.8,295z"/>
		</g>
	</g>
</g>
</svg>
