<?xml version="1.0" encoding="utf-8"?>
<!-- Generator: Adobe Illustrator 26.3.1, SVG Export Plug-In . SVG Version: 6.00 Build 0)  -->
<svg version="1.1" id="Layer_1" xmlns="http://www.w3.org/2000/svg" xmlns:xlink="http://www.w3.org/1999/xlink" x="0px" y="0px"
	 viewBox="0 0 601.5 601.5" style="enable-background:new 0 0 601.5 601.5;" xml:space="preserve">
<style type="text/css">
	.st0{fill:#FFFFFF;}
</style>
<g>
	<path class="st0" d="M300.8,586.6c-156.6,0-284.1-127.4-284.1-284.1s127.4-284,284.1-284s284.1,127.4,284.1,284.1
		S457.4,586.6,300.8,586.6z M300.8,33.4c-148.4,0-269.1,120.7-269.1,269.1s120.7,269.1,269.1,269.1s269.1-120.7,269.1-269.1
		S449.1,33.4,300.8,33.4z"/>
	
		<rect x="282.4" y="288.5" transform="matrix(0.7071 -0.7071 0.7071 0.7071 -166.4894 309.0995)" class="st0" width="14.9" height="134"/>
	
		<rect x="233.4" y="259.1" transform="matrix(0.7071 -0.7071 0.7071 0.7071 -102.2161 286.3507)" class="st0" width="122.2" height="14.9"/>
</g>
</svg>
