<?xml version="1.0" encoding="utf-8"?>
<!-- Generator: Adobe Illustrator 28.0.0, SVG Export Plug-In . SVG Version: 6.00 Build 0)  -->
<svg version="1.1" id="Layer_5" xmlns="http://www.w3.org/2000/svg" xmlns:xlink="http://www.w3.org/1999/xlink" x="0px" y="0px"
	 viewBox="0 0 447.8 302.7" enable-background="new 0 0 447.8 302.7" xml:space="preserve">
<g>
	<path fill="#888888" d="M8.9,42.4c72.5,60.4,143.7,119.7,215,179.1c71.4-59.5,142.5-118.7,215-179.1c0.9,7.2,2.2,13.1,2.2,19.1
		c0.2,59.9,0.3,119.8,0,179.7c-0.2,32.7-24.8,56.9-57.5,57c-106.5,0.1-213,0.1-319.5,0c-32.6,0-57.1-23.9-57.3-57.1
		C6.4,181.1,6.6,121,6.8,61C6.8,55.2,8.1,49.5,8.9,42.4z"/>
	<path fill="#888888" d="M26.1,18.2C37.3,8.8,49.8,4.4,64,4.5c30.6,0.1,61.2,0,91.8,0c75.7,0,151.4,0.1,227.1-0.1
		c14.6,0,27.4,4.2,38.9,13.8c-3.9,3.3-7.6,6.4-11.3,9.5c-60.9,50.8-121.9,101.5-182.8,152.4c-2.7,2.3-4.4,2.8-7.5,0.3
		C156.7,127.3,93.1,74.3,29.5,21.3C28.5,20.4,27.5,19.5,26.1,18.2z"/>
</g>
</svg>
