<?xml version="1.0" encoding="utf-8"?>
<!-- Generator: Adobe Illustrator 28.0.0, SVG Export Plug-In . SVG Version: 6.00 Build 0)  -->
<svg version="1.1" id="Layer_5" xmlns="http://www.w3.org/2000/svg" xmlns:xlink="http://www.w3.org/1999/xlink" x="0px" y="0px"
	 viewBox="0 0 590 590" enable-background="new 0 0 590 590" xml:space="preserve">
<g>
	<path fill="#003399" d="M79.2,75.8c-6.5,0-12.2-0.1-17.8,0c-5.7,0.2-9.1,3.1-9.2,8.5c-0.3,10.5-0.1,21-0.1,31.4
		c16.2,7.2,23,19.6,22.5,36.8c-0.4,12.5,0.2,25.1-0.2,37.7c-0.5,16.3-11.4,29.2-26.9,32.5c-14.7,3.2-30.4-4.3-36.8-18.4
		c-2.3-5.1-3.3-11.1-3.5-16.8c-0.5-12.5-0.1-25.1-0.2-37.7c0-14.8,6.2-25.9,19.6-32.8c1.5-0.8,2.8-3.3,2.8-5.1
		c0.3-8.8,0-17.6,0.2-26.4c0.2-19.1,13.2-32,32.3-32.3c6-0.1,12,0,16,0c5.6-9.8,9.6-19.2,15.8-26.9c10.6-13.1,25.3-19,42.1-19.1
		c36.9-0.2,73.8-0.1,110.7,0c7.9,0,12.8,4.4,12.8,11.1c0.1,7-4.8,11.3-13.2,11.3c-35.4,0.1-70.8,0-106.2,0
		c-24.6,0-38.2,13.6-38.2,38.3c0,9.5,0,19,0,28.9c36,0,71.5,0,107.9,0c0-7.9,0-15.9,0-23.8c0-2.6-0.1-5.2,0-7.9
		c0.2-8.5,4.5-12.8,12.9-12.9c15.4-0.1,30.7,0,46.1,0c32.2,0,64.5,0,96.7,0c11.5,0,15.2,3.7,15.2,15.2c0,9.7,0,19.4,0,29.5
		c36.1,0,71.7,0,107.4,0c0-12.9,1-25.7-0.3-38.2c-1.8-17.4-16.1-28.8-34.5-28.9c-34.7-0.1-69.3,0-104-0.1c-2.1,0-4.2,0-6.2-0.4
		c-5.7-1.1-9.3-5.7-9.2-11.1c0.1-5.3,3.7-9.5,9.1-10.6c2-0.4,4.1-0.4,6.1-0.4c33.2,0,66.3,0.6,99.5-0.2
		c30.2-0.7,54.4,16.6,60.9,44.3c0.1,0.5,0.4,1,0.8,2c5.8,0,11.8-0.1,17.7,0c19.1,0.2,32.1,13.1,32.3,32.2c0.1,10.1,0,20.2,0,30.3
		c16.3,7.2,23.1,19.6,22.6,36.8c-0.4,12.5,0.2,25.1-0.2,37.7c-0.5,16.3-11.4,29.2-26.9,32.5c-14.7,3.2-30.4-4.3-36.8-18.4
		c-2.3-5.1-3.3-11.1-3.5-16.8c-0.5-12.5-0.1-25.1-0.2-37.7c0-14.8,6.2-25.9,19.6-32.8c1.4-0.7,2.8-3,2.8-4.5c0.3-9,0.2-18,0.1-27
		c-0.1-6.5-3.2-9.6-9.7-9.8c-5.4-0.1-10.9,0-17.2,0c0,2.5,0,4.8,0,7.2c0,120.7,0,241.4,0,362.1c0,23.5-9.1,41.6-29.6,53.7
		c-1.6,0.9-2.8,3.8-2.8,5.8c-0.3,12.2,0.2,24.4-0.2,36.5c-1.2,33.3-35.9,52.5-64.5,35.6c-14.3-8.4-20.6-21.8-20.8-38.1
		c-0.1-10.8,0-21.7,0-32.8c-65.2,0-130,0-195.3,0c-0.1,1.5-0.3,3.1-0.3,4.7c0,9.4,0.1,18.7,0,28.1c-0.3,25.3-18.5,44.3-42.5,44.4
		c-23.6,0.1-42.2-18.7-42.8-43.6c-0.3-11.6,0.1-23.2-0.2-34.9c0-2-1.3-4.8-2.8-5.8c-20.6-12-29.7-30.2-29.7-53.7
		c0.1-85.7,0-171.3,0-257c0-35.2,0-70.5,0-105.7C79.2,80.4,79.2,78.4,79.2,75.8z M101.7,331.8c0,3.2,0,4.9,0,6.5
		c0,35.6,0,71.2,0,106.8c0,23.9,13.8,37.8,37.6,37.8c103.8,0,207.6,0,311.3,0c23.9,0,37.8-13.7,37.8-37.6c0-35.6,0-71.2,0-106.8
		c0-1.8,0-3.6,0-6.9c-9.3,9.3-17.7,17.5-25.8,25.9c-4.1,4.2-8.7,6-14.5,6c-102.1-0.1-204.2-0.1-306.3,0c-5.8,0-10.4-1.8-14.5-6
		C119.3,349.2,111,341.1,101.7,331.8z M488.4,136.2c-1.3,0.9-1.7,1-1.9,1.3c-59.3,59.3-118.7,118.7-178,178c-1,1-2,2.5-2.1,3.7
		c-0.2,7.1-0.1,14.1-0.1,21.4c1.5,0.1,2.4,0.3,3.3,0.3c44.8,0,89.5,0.1,134.3-0.1c2.2,0,4.9-1.6,6.6-3.2
		c11.4-11.1,22.5-22.5,33.9-33.6c2.9-2.8,4.1-5.6,4.1-9.7c-0.2-50.6-0.1-101.2-0.1-151.8C488.4,140.7,488.4,138.9,488.4,136.2z
		 M283.4,132.4c-58,58-116.2,116.2-174.7,174.7c9.8,9.8,20,20,30.2,30.1c5.6,5.6,9.1,5.6,14.6,0.2c20.9-20.9,41.8-41.9,62.8-62.8
		c1.7-1.7,3.5-3.4,5.5-4.7c4.4-3,10.3-2.2,13.9,1.4c3.7,3.8,4.2,9.4,1.2,13.9c-1.2,1.8-2.8,3.5-4.4,5.1
		c-15.2,15.3-30.5,30.5-45.7,45.7c-1.4,1.4-2.6,2.8-4.4,4.8c34.4,0,67.6,0,101.1,0C283.4,270.8,283.4,201.3,283.4,132.4z
		 M102.2,119.9c0,53.3,0,106.3,0,158.6c52.8-52.8,105.7-105.7,158.5-158.6C208.3,119.9,155.4,119.9,102.2,119.9z M471.1,119.6
		c-14.8,0-29.5,1.1-43.9-0.3c-15.1-1.4-26.1,3.2-35.9,14.8c-10.5,12.4-22.8,23.2-34.3,34.8c-3.8,3.8-8.1,6.2-13.6,4
		c-8-3.1-9.5-12.5-2.8-19.4c9.8-10.1,19.8-19.9,29.7-29.8c1.1-1.1,2-2.3,3.2-3.8c-22.8,0-44.8,0-66.9,0c0,55,0,109.7,0,164.3
		C361.3,229.5,416,174.8,471.1,119.6z M232.3,96.7c42.1,0,83.8,0,125.4,0c0-7.5,0-14.5,0-21.8c-41.9,0-83.5,0-125.4,0
		C232.3,82.3,232.3,89.3,232.3,96.7z M174.6,505.7c-13.7,0-26.8,0-40.3,0c0,9.6-0.1,18.9,0,28.2c0.1,4.1,0.1,8.3,1.1,12.2
		c2.4,9.1,11.7,15.1,21,14.2c9.5-0.9,17.7-8.5,18-17.8C175,530.4,174.6,518.3,174.6,505.7z M455.7,505.7c-13.7,0-26.8,0-40.1,0
		c0,12.6-0.6,25,0.2,37.2c0.7,10.2,10,17.6,20.1,17.5c10.1-0.1,19.2-7.8,19.7-17.9C456.1,530.4,455.7,518.3,455.7,505.7z
		 M560.3,168.7c0-6.5,0.1-13.1,0-19.6c-0.2-7.4-4.6-12.3-11-12.5c-6.6-0.2-11.4,4.9-11.5,12.5c-0.1,13.1-0.1,26.2,0,39.3
		c0.1,7.5,4.4,12.2,10.9,12.4c6.8,0.1,11.3-4.7,11.5-12.4C560.4,181.8,560.3,175.2,560.3,168.7z M52.1,168.7c0-6.5,0.1-13.1,0-19.6
		c-0.2-7.7-4.9-12.7-11.4-12.5c-6.4,0.1-10.9,5-11,12.4c-0.1,13.1-0.1,26.2,0,39.3c0.1,7.8,4.7,12.6,11.4,12.5
		c6.5-0.1,10.8-4.8,11-12.3C52.2,181.8,52.1,175.3,52.1,168.7z"/>
	<path fill="#003399" d="M285.8,18.5c0-6.1,4.9-11.2,10.9-11.3c5.9-0.1,11.1,5.1,11.1,11.1c0.1,6-5,11.2-11,11.3
		C290.8,29.6,285.8,24.6,285.8,18.5z"/>
	<path fill="#E31E24" d="M295.1,389.4c18.5,0,37.1,0,55.6,0c10.3,0,14.1,3.8,14.1,14.2c0,13.3,0.1,26.6,0,39.9
		c-0.1,9.2-4.2,13.5-13.3,13.5c-37.6,0-75.3,0-112.9,0c-9,0-13.3-4.4-13.3-13.5c0-13.7-0.1-27.3,0-41c0-8.8,4.2-13,13.1-13.1
		C257.3,389.3,276.2,389.4,295.1,389.4z M248.2,434c31.5,0,62.6,0,93.6,0c0-7.5,0-14.5,0-21.6c-31.4,0-62.4,0-93.6,0
		C248.2,419.7,248.2,426.7,248.2,434z"/>
	<path fill="#003399" d="M164.8,389.6c18.4,0.1,33.5,15.3,33.5,33.7c0,18.3-15.3,33.6-33.6,33.7c-18.4,0.1-34.1-15.7-33.8-34.1
		C131.2,404.4,146.4,389.4,164.8,389.6z M164.9,434.4c5.9-0.2,11-5.5,10.9-11.4c-0.2-6-5.4-11-11.4-10.9
		c-5.9,0.1-11.1,5.5-10.9,11.4C153.6,429.4,159,434.5,164.9,434.4z"/>
	<path fill="#003399" d="M391.7,423.4c-0.1-18.4,14.9-33.7,33.3-33.8c18.6-0.2,34.1,15.2,34,33.7c-0.1,18.3-15.4,33.6-33.7,33.6
		C407.1,457,391.8,441.7,391.7,423.4z M436.5,423c-0.1-6-5.4-11-11.3-10.9c-6,0.1-11.1,5.3-11,11.3c0.1,5.9,5.4,11.1,11.3,11
		C431.4,434.3,436.7,428.9,436.5,423z"/>
</g>
</svg>
