<?xml version="1.0" encoding="utf-8"?>
<!-- Generator: Adobe Illustrator 28.0.0, SVG Export Plug-In . SVG Version: 6.00 Build 0)  -->
<svg version="1.1" id="Layer_1" xmlns="http://www.w3.org/2000/svg" xmlns:xlink="http://www.w3.org/1999/xlink" x="0px" y="0px"
	 viewBox="0 0 626.1 629" enable-background="new 0 0 626.1 629" xml:space="preserve">
<path d="M383.9,413.8c14.5-14.6,28.2-28.7,42.1-42.6c10.5-10.5,22.7-18,37.5-20.6c22.7-3.9,41.6,3.9,57.6,19.8
	c23,22.8,45.7,45.9,68.6,68.8c2.8,2.8,5.5,5.5,8.3,8.3c27.1,27.7,28,65,2.1,93.8c-5.2,5.8-10.9,11.1-16.4,16.7
	c-9.8,10-19.6,20-29.2,30.1c-22.7,23.8-50.8,34.5-83.4,33.4c-37-1.3-71.7-11.9-105.3-26.6c-100.5-43.9-183.4-110.5-250.9-196.6
	c-39.6-50.6-72.1-105.1-93-166.1c-9.6-28.1-15.6-56.7-14.3-86.6c1.2-25.9,10-48.7,27.9-67.4c16.4-17.2,33.1-34.1,50.2-50.6
	c27.9-27,66.2-27.1,94-0.1c26.4,25.6,52.3,51.7,78,78c18.2,18.7,25.7,40.8,17.4,66.6c-3.5,10.9-9.8,20.2-17.8,28.3
	c-13.3,13.4-26.6,26.8-40.1,39.9c-2.5,2.4-2.5,4.1-1.1,7c12.6,25.3,29.5,47.5,48,68.6c25.8,29.5,54.3,56.1,87,78
	C361.4,401,372.4,407,383.9,413.8z M48.7,155.5c0.7,7.6,1.1,15.3,2.3,22.8c4.3,27.6,13.6,53.6,25.6,78.6
	c61.6,128.8,156,225.8,283.7,289.9C393,563.2,427,576,463.8,579.7c25.5,2.5,47.2-3.9,64.1-24.3c6.6-8,14.5-15,21.7-22.4
	c7.1-7.2,14.5-14.1,21.1-21.7c9-10.6,8.6-21.6-0.4-32.2c-1.4-1.6-2.9-3.1-4.3-4.6c-24.8-24.9-49.7-49.7-74.6-74.6
	c-1.6-1.6-3.3-3.1-5.2-4.5c-7.4-5.2-15.2-5.9-22.8-1c-3.9,2.5-7.5,5.7-10.9,8.9c-14.9,14.8-29.7,29.7-44.6,44.5
	c-10.1,10-22.9,12.7-34.9,6.7c-12.5-6.2-25-12.7-36.8-20.1c-40.5-25.6-75.3-57.8-106.5-94c-22.1-25.6-41.9-52.7-55.5-84
	c-7.3-16.9-4.6-28.7,8.7-41.3c15.2-14.5,30.2-29.2,44.9-44.2c12.2-12.4,11.9-23.6,0-36.3c-0.6-0.6-1.1-1.2-1.7-1.8
	c-20.6-20.8-41.2-41.6-61.9-62.4c-5.4-5.4-10.8-10.9-16.7-15.7c-8.5-7-17.5-7.4-26.7-1.6c-3,1.9-5.8,4.3-8.3,6.8
	c-13.7,13.5-26.9,27.5-40.9,40.6C55.7,115.5,48,133.5,48.7,155.5z"/>
</svg>
