<?xml version="1.0" encoding="utf-8"?>
<!-- Generator: Adobe Illustrator 28.0.0, SVG Export Plug-In . SVG Version: 6.00 Build 0)  -->
<svg version="1.1" id="Layer_5" xmlns="http://www.w3.org/2000/svg" xmlns:xlink="http://www.w3.org/1999/xlink" x="0px" y="0px"
	 viewBox="0 0 495.7 496.2" enable-background="new 0 0 495.7 496.2" xml:space="preserve">
<path fill="#888888" d="M197.9,269.6c-52-39.7-44.5-103-13.9-134.3c33.9-34.7,89.8-35.7,124.5-2.5c32.2,30.8,42.2,95.4-11.1,136.7
	c47.2,23.7,73.3,61,75.6,114.9c-8.5,0-15.9,0-23.9,0c-2-31.3-13.5-58.1-38.3-78.2c-19-15.3-41.1-23.1-65.2-22.4
	c-49.7,1.5-95.6,37-99.9,100.5c-7.6,0-15.1,0-22.7,0C119.8,349,142.2,294.7,197.9,269.6z M247.4,132.7c-35,0.1-63.6,28.7-63.4,63.6
	c0.2,34.7,29.2,63.4,63.9,63.4c33.9,0,63-29.3,63-63.4C311,161.5,282.2,132.6,247.4,132.7z"/>
<path fill="#888888" d="M247.9,487.9c-64.5,0-125.1-25.1-170.7-70.7C31.5,371.6,6.4,310.9,6.4,246.4c0-64.5,25.1-125.1,70.7-170.7
	C122.7,30.1,183.4,5,247.9,5C312.4,5,373,30.1,418.6,75.7c45.6,45.6,70.7,106.2,70.7,170.7c0,64.5-25.1,125.1-70.7,170.7
	C373,462.8,312.4,487.9,247.9,487.9z M247.9,27c-121,0-219.5,98.5-219.5,219.5c0,121,98.5,219.5,219.5,219.5
	c121,0,219.5-98.5,219.5-219.5C467.3,125.4,368.9,27,247.9,27z"/>
</svg>
