<?xml version="1.0" encoding="utf-8"?>
<!-- Generator: Adobe Illustrator 26.3.1, SVG Export Plug-In . SVG Version: 6.00 Build 0)  -->
<svg version="1.1" id="Layer_1" xmlns="http://www.w3.org/2000/svg" xmlns:xlink="http://www.w3.org/1999/xlink" x="0px" y="0px"
	 viewBox="0 0 601.5 601.5" enable-background="new 0 0 601.5 601.5" xml:space="preserve">
<path fill="#014548" d="M65.2,552.9h235.9h235.1c-3.3-59.8-29.1-113-68.1-152.1c-43.2-43.2-102.2-69.8-167-69.8
	c-65.6,0-124.6,26.6-167,69.8C94.3,439.9,68.6,493.1,65.2,552.9z M301.2,582H50.3H35.3v-15c0-73.1,29.9-139.6,78.1-187.8
	c47.4-47.3,113.8-77.2,187.8-77.2c73.1,0,139.6,29.9,187.8,77.2c48.2,48.2,77.2,114.7,77.2,187.8v15h-14.1H301.2z M374.3,79.4
	c-19.1-19.1-44.9-30.8-73.1-30.8c-29.1,0-54.8,11.6-73.9,30.8c-18.3,19.1-29.9,44.9-29.9,73.1c0,29.1,11.6,54.8,29.9,73.9
	c19.1,18.3,44.9,29.9,73.9,29.9c28.2,0,54-11.6,73.1-29.9c19.1-19.1,30.8-44.9,30.8-73.9C405,124.2,393.4,98.5,374.3,79.4z
	 M301.2,19.5c36.5,0,69.8,14.9,93.9,39.1c24.1,24.1,39.1,57.3,39.1,93.9c0,37.4-14.9,70.6-39.1,94.7c-24.1,24.1-57.3,39.1-93.9,39.1
	c-37.4,0-70.6-15-94.7-39.1s-39.1-57.3-39.1-94.7c0-36.5,15-69.8,39.1-93.9C230.6,34.5,263.8,19.5,301.2,19.5z"/>
</svg>
