<?xml version="1.0" encoding="utf-8"?>
<!-- Generator: Adobe Illustrator 26.3.1, SVG Export Plug-In . SVG Version: 6.00 Build 0)  -->
<svg version="1.1" id="Layer_1" xmlns="http://www.w3.org/2000/svg" xmlns:xlink="http://www.w3.org/1999/xlink" x="0px" y="0px"
	 viewBox="0 0 601.5 601.5" enable-background="new 0 0 601.5 601.5" xml:space="preserve">
<path fill="#014548" d="M54.9,457.8V183.9L292,373c4.9,3.9,11.6,3.9,16.5,0l237-189.1v274L54.9,457.8z M517.9,169.1L300.2,342.9
	L82.9,169.2L517.9,169.1z M573.1,154.2c0-1.4-0.2-2.7-0.6-4v-0.4c-0.4-1.3-1-2.5-1.7-3.6l-0.4-0.5c-0.7-1-1.5-1.8-2.4-2.6h-0.4
	c-1-0.8-2.1-1.4-3.3-1.9h-0.8c-1.3-0.4-2.6-0.7-3.9-0.7H41.4c-1.3,0-2.6,0.3-3.9,0.7h-0.8c-1.2,0.4-2.3,1.1-3.3,1.9H33
	c-0.9,0.8-1.7,1.6-2.4,2.6l-0.4,0.5c-0.7,1.1-1.3,2.3-1.7,3.6v0.4c-0.4,1.3-0.6,2.6-0.6,4v318.6c0,8.2,6.2,14.9,13.8,14.9h518.2
	c7.6,0,13.8-6.7,13.8-14.9V154.4L573.1,154.2z"/>
</svg>
