<?xml version="1.0" encoding="utf-8"?>
<!-- Generator: Adobe Illustrator 28.0.0, SVG Export Plug-In . SVG Version: 6.00 Build 0)  -->
<svg version="1.1" id="Layer_5" xmlns="http://www.w3.org/2000/svg" xmlns:xlink="http://www.w3.org/1999/xlink" x="0px" y="0px"
	 viewBox="0 0 511.1 510.7" enable-background="new 0 0 511.1 510.7" xml:space="preserve">
<g>
	<path fill="#003399" d="M7.2,190.3c83-61.2,165.5-122,248.3-183.1c33.6,24.8,67.3,49.6,101.6,74.9c0-14.9,0-29.1,0-43.6
		c29.3,0,58,0,87.5,0c0,1.6,0,3.3,0,5c0,32.8,0.1,65.6-0.1,98.5c0,3.4,1,5.5,3.8,7.6c18.4,13.4,36.7,27,55.5,40.8
		c-5.8,7.8-11.4,15.4-17.3,23.4c-4.2-3.1-8-5.9-12.6-9.2c0,100.1,0,199.4,0,299c-145.7,0-290.9,0-436.6,0c0-99.4,0-198.7,0-299.2
		c-4.7,3.4-8.5,6.2-12.9,9.3C18.7,205.9,13.1,198.3,7.2,190.3z M444.7,474.5c0-1.8,0-3.2,0-4.6c0-94.2,0-188.5,0.1-282.7
		c0-3.3-1.2-5.2-3.7-7.1c-60.4-44.4-120.7-88.9-181-133.5c-3.5-2.6-5.6-2.4-9.1,0.1c-60.3,44.6-120.6,89.1-181,133.5
		c-2.9,2.1-3.6,4.3-3.6,7.7c0.1,93.8,0.1,187.5,0.1,281.3c0,1.7,0,3.5,0,5.4C192.6,474.5,318.3,474.5,444.7,474.5z M386.5,67.5
		c0,11.6,0,22.9,0.1,34.2c0,1,0.5,2.3,1.2,2.9c9,6.7,18,13.3,27.6,20.4c0-19.6,0-38.4,0-57.4C405.8,67.5,396.5,67.5,386.5,67.5z"/>
	<path fill="#E31E24" d="M386.6,416.6c-87.7,0-174.5,0-261.8,0c0,9.5,0,18.9,0,28.7c-10,0-19.4,0-29.1,0c0-77.4,0-154.6,0-232.1
		c9.4,0,18.8,0,28.6,0c0,19,0,38,0,57.8c1.9,0,3.4,0,5,0c12.1,0,24.3,0.3,36.4-0.1c32.2-1,52.6,29.1,44.4,55.8
		c-0.2,0.6-0.1,1.3-0.2,2.3c68.4,0,136.8,0,205.4,0c0,38.9,0,77.5,0,116.2c-9.5,0-18.8,0-28.6,0
		C386.6,435.9,386.6,426.5,386.6,416.6z M386.3,358.6c-87.4,0-174.4,0-261.4,0c0,9.7,0,19,0,28.5c87.2,0,174.2,0,261.4,0
		C386.3,377.5,386.3,368.2,386.3,358.6z M124.9,300.1c0,10,0,19.4,0,29.1c13.9,0,27.4,0,40.9,0c1.1,0,2.3,0.1,3.4-0.1
		c7.6-0.7,13.5-7,13.5-14.5c0-7.5-5.9-14.3-13.5-14.4C154.6,299.9,139.9,300.1,124.9,300.1z"/>
	<path fill="#003399" d="M327.9,241.7c-48.5,0-96.6,0-144.9,0c0-38.6,0-77,0-115.8c48.2,0,96.4,0,144.9,0
		C327.9,164.3,327.9,202.8,327.9,241.7z M298.8,212.6c0-19.5,0-38.6,0-57.6c-29.2,0-58,0-86.7,0c0,19.4,0,38.4,0,57.6
		C241.1,212.6,269.8,212.6,298.8,212.6z"/>
</g>
</svg>
