<?xml version="1.0" encoding="utf-8"?>
<!-- Generator: Adobe Illustrator 28.0.0, SVG Export Plug-In . SVG Version: 6.00 Build 0)  -->
<svg version="1.1" id="Layer_5" xmlns="http://www.w3.org/2000/svg" xmlns:xlink="http://www.w3.org/1999/xlink" x="0px" y="0px"
	 viewBox="0 0 470.4 470.7" enable-background="new 0 0 470.4 470.7" xml:space="preserve">
<g>
	<path fill="#888888" d="M7.5,234.4c0-35.4-1.1-70.9,0.2-106.3C10.1,63,62.6,9.6,127.5,8.2c73-1.6,146.1-1.4,219.1,0.1
		c58.8,1.2,114,55.7,115.4,114.7c1.8,75.1,1.8,150.4,0,225.6c-1.4,58.3-55.7,112.2-114.8,113.7c-75.1,1.9-150.4,1.9-225.5-0.1
		c-59-1.6-111.8-57.1-113.7-116.3c-1.2-37.1-0.2-74.3-0.2-111.5C7.6,234.4,7.5,234.4,7.5,234.4z M344.6,235.4
		c0-59.2-49.4-109-108.9-109.6c-59.5-0.6-110.2,49.7-110.3,109.5c-0.1,59.7,50.7,110.2,110.1,109.6
		C295.3,344.2,344.6,294.7,344.6,235.4z M353.2,143.7c14.8,0.2,27.5-11.9,27.7-26.5c0.2-14.4-12.4-27.4-26.9-27.7
		c-14.4-0.3-27.1,12.2-27.4,26.9C326.4,131.4,338.1,143.5,353.2,143.7z"/>
	<path fill="#888888" d="M162.1,233.7c1.3-40.9,34.7-72.7,74.9-71.3c40.8,1.5,72.7,35.3,71,75.3c-1.7,40.5-34.5,71.6-74.3,70.6
		C193,307.3,160.8,273.8,162.1,233.7z"/>
</g>
</svg>
