<?xml version="1.0" encoding="utf-8"?>
<!-- Generator: Adobe Illustrator 28.0.0, SVG Export Plug-In . SVG Version: 6.00 Build 0)  -->
<svg version="1.1" id="Layer_5" xmlns="http://www.w3.org/2000/svg" xmlns:xlink="http://www.w3.org/1999/xlink" x="0px" y="0px"
	 viewBox="0 0 717.4 891.7" enable-background="new 0 0 717.4 891.7" xml:space="preserve">
<g>
	<path fill="#90939E" d="M710.9,80.8V43c0-19.2-16.9-34.9-37.6-34.9H47.2C26.5,8.1,9.6,23.8,9.6,43v37.8c0,19.2,16.9,34.9,37.6,34.9
		h21.1c-1.5,14.9-2.3,30-2.3,45.1c0,116.9,46.4,224.6,123.3,290.9C112.4,517.9,66,625.6,66,742.6c0,11.2,0.5,22.3,1.3,33.5H44.1
		c-20.7,0-37.6,15.7-37.6,34.9v37.8c0,19.2,16.9,34.9,37.6,34.9h626.1c20.7,0,37.6-15.7,37.6-34.9v-37.8c0-19.2-16.9-34.9-37.6-34.9
		h-20.1c0.8-11.1,1.3-22.3,1.3-33.5c0-116.9-46.4-224.7-123.3-290.9c76.9-66.2,123.3-173.9,123.3-290.9c0-15.1-0.8-30.2-2.3-45.1
		h24.3C694,115.7,710.9,100,710.9,80.8z M464,427.2l-38.2,24.5l38.2,24.5c79.8,51.2,129.4,153.3,129.4,266.4
		c0,11.2-0.5,22.4-1.5,33.5H125.4c-1-11.1-1.5-22.3-1.5-33.5c0-113.1,49.6-215.2,129.4-266.4l38.2-24.5l-38.2-24.5
		C173.5,376,123.9,273.9,123.9,160.8c0-15.1,1-30.2,2.7-45.1h464c1.8,14.9,2.7,30,2.7,45.1C593.4,273.9,543.8,376,464,427.2z"/>
	<path fill="#90939E" d="M358.7,429.9c136.2-20.4,173.7-160,173.7-160H213.1C216.2,371.7,358.7,429.9,358.7,429.9z"/>
	<path fill="#90939E" d="M191.2,738.2h341.2c0,0-6.3-151.3-170.6-253.1C361.8,485.1,194.3,578.2,191.2,738.2z"/>
</g>
</svg>
