<?xml version="1.0" encoding="utf-8"?>
<!-- Generator: Adobe Illustrator 28.0.0, SVG Export Plug-In . SVG Version: 6.00 Build 0)  -->
<svg version="1.1" id="Layer_5" xmlns="http://www.w3.org/2000/svg" xmlns:xlink="http://www.w3.org/1999/xlink" x="0px" y="0px"
	 viewBox="0 0 495.7 496.2" enable-background="new 0 0 495.7 496.2" xml:space="preserve">
<g>
	<path fill="#888888" d="M8.3,249.2C8.3,116.8,116.1,9.2,248.6,9.2c132.4,0,240.2,107.7,240.2,240.1c0,132.4-107.9,240.1-240.6,240
		C115.9,489.2,8.4,381.5,8.3,249.2z M436.2,249.5C436.5,146.8,352.5,62,250,61.7c-104.3-0.4-188.8,83.2-189.1,187
		c-0.3,103.5,83.6,187.8,187.4,188.1C351.5,437.1,435.9,353,436.2,249.5z"/>
	<path fill="#888888" d="M269.3,198.2c0,16.1,0,32.2,0,48.3c0,2.1,0.5,3.6,2.1,5.2c22.4,22.3,44.8,44.7,67.1,67
		c6.5,6.5,8.3,15,5,22.7c-5.7,13.6-22.7,16.9-33.4,6.4c-12.4-12.2-24.6-24.6-36.9-36.8c-12.5-12.5-25-25-37.5-37.5
		c-4.6-4.5-7-9.7-7-16.2c0-36.2-0.1-72.5,0-108.7c0-11.2,9.1-20,20.2-20c11.3,0,20.4,9,20.4,20.7
		C269.4,165.6,269.3,181.9,269.3,198.2z"/>
</g>
</svg>
