<?xml version="1.0" encoding="utf-8"?>
<!-- Generator: Adobe Illustrator 26.3.1, SVG Export Plug-In . SVG Version: 6.00 Build 0)  -->
<svg version="1.1" id="Layer_1" xmlns="http://www.w3.org/2000/svg" xmlns:xlink="http://www.w3.org/1999/xlink" x="0px" y="0px"
	 viewBox="0 0 601.5 601.5" enable-background="new 0 0 601.5 601.5" xml:space="preserve">
<path fill="#014548" d="M288.3,77.6c155.9,0,262.2,157.9,203.3,302.3l-29.8,73c-9.2,22.9-2.7,48.9,16.8,64.6l9.9,8H307.5
	C176,525.5,69.3,418.9,69.3,287.4C69.3,172,163,78.3,278.4,78.3h9.9V77.6z M535.6,397.5c71.5-175.8-57.7-368.1-247.3-368.1H278
	c-141.8,0-256.8,115-256.8,256.8c0,157.9,128,285.9,285.9,285.9h249.2c13.4,0,24.1-10.7,24.1-23.7c0-7.3-3.4-14.1-8.8-18.7
	l-63.1-50.1c-2.7-2.3-3.8-6.1-2.3-9.2L535.6,397.5z"/>
</svg>
