<?xml version="1.0" encoding="utf-8"?>
<!-- Generator: Adobe Illustrator 26.3.1, SVG Export Plug-In . SVG Version: 6.00 Build 0)  -->
<svg version="1.1" id="Layer_1" xmlns="http://www.w3.org/2000/svg" xmlns:xlink="http://www.w3.org/1999/xlink" x="0px" y="0px"
	 viewBox="0 0 601.5 601.5" enable-background="new 0 0 601.5 601.5" xml:space="preserve">
<g>
	<path fill="#014548" d="M535.6,173.2l-3.5,3.5L429.6,74.2l3.5-3.5c10-10,23.4-15.3,36.9-15.3c13.5,0,27,5.3,36.9,15.3l28.7,28.7
		C556.2,119.9,556.2,153.3,535.6,173.2 M191.7,517.2c-1.2,1.2-1.7,1.8-2.9,2.3l-41-41l323.4-323.4l41.6,41.6L191.7,517.2z
		 M59.8,520.1l15.3-74.4l85.5,85.5l-74.4,15.3L59.8,520.1z M409.7,94.1l41.6,41.6L127.8,459.2l-41-41c0.6-1.1,1.7-2.3,2.3-2.9
		L409.7,94.1z M555.6,79.5l-28.7-28.7c-31.6-31.6-82.6-31.6-113.7,0l-344,343.9c-10.5,10.6-17,23.4-19.9,37.5L22.9,561.1
		c-1.1,6.5,0.6,12.9,5.3,17.6c3.5,3.5,8.8,5.8,13.5,5.8c1.2,0,2.3,0,4.1-0.6l128.9-26.4c14.1-2.9,27-10,37.5-19.9l343.9-343.9
		C586.6,162.1,586.6,111.1,555.6,79.5"/>
</g>
</svg>
