<?xml version="1.0" encoding="utf-8"?>
<!-- Generator: Adobe Illustrator 25.4.1, SVG Export Plug-In . SVG Version: 6.00 Build 0)  -->
<svg version="1.1" id="Layer_1" xmlns="http://www.w3.org/2000/svg" xmlns:xlink="http://www.w3.org/1999/xlink" x="0px" y="0px"
	 viewBox="0 0 65 65" style="enable-background:new 0 0 65 65;" xml:space="preserve">
<style type="text/css">
	.st0{fill:#CECDCD;}
	.st1{fill:#5EB546;}
</style>
<path class="st0" d="M-96.88,72.94c-0.04,0-0.09,0-0.13,0c-0.06-0.04-0.12-0.09-0.18-0.12c-1.68-0.92-3.36-1.83-5.04-2.75
	c-4.57-2.49-9.14-4.99-13.71-7.48c-0.18-0.1-0.32-0.09-0.5,0c-1.54,0.79-3.09,1.57-4.63,2.35c-4.5,2.28-9,4.57-13.5,6.85
	c-0.39,0.2-0.78,0.39-1.19,0.59c-0.01-0.07-0.02-0.09-0.02-0.11c0.32-1.67,0.64-3.33,0.95-5c0.53-2.82,1.04-5.65,1.57-8.47
	c0.48-2.56,0.96-5.12,1.45-7.68c0.04-0.23-0.01-0.39-0.18-0.57c-5-5.01-10-10.03-14.99-15.05c-0.08-0.08-0.15-0.16-0.27-0.29
	c1.1-0.14,2.14-0.28,3.18-0.41c1.38-0.18,2.75-0.37,4.13-0.55c1.94-0.25,3.88-0.5,5.82-0.75c1.4-0.18,2.8-0.36,4.2-0.55
	c1.41-0.18,2.82-0.37,4.23-0.57c0.12-0.02,0.26-0.13,0.33-0.24c0.23-0.4,0.43-0.81,0.64-1.22c3.09-6.03,6.17-12.06,9.26-18.1
	c0.02,0,0.04,0,0.06,0c0.02,0.05,0.03,0.1,0.05,0.15c0.75,1.58,1.5,3.17,2.25,4.75c1.51,3.17,3.02,6.35,4.52,9.52
	c0.82,1.72,1.63,3.43,2.44,5.15c0.09,0.2,0.21,0.29,0.43,0.3c0.23,0.01,0.46,0.08,0.69,0.11c2.47,0.39,4.94,0.78,7.41,1.17
	c2.34,0.38,4.68,0.76,7.02,1.14c1.32,0.21,2.64,0.43,3.95,0.64c0.76,0.12,1.52,0.22,2.28,0.33c0,0.04,0,0.09,0,0.13
	c-0.1,0.07-0.21,0.14-0.3,0.23c-2.2,2.08-4.4,4.17-6.6,6.25c-2.92,2.77-5.85,5.53-8.78,8.3c-0.18,0.17-0.26,0.32-0.21,0.58
	c0.26,1.59,0.5,3.19,0.75,4.78c0.24,1.54,0.49,3.08,0.73,4.62c0.25,1.62,0.5,3.25,0.75,4.88c0.18,1.17,0.36,2.34,0.54,3.51
	C-97.26,70.56-97.07,71.75-96.88,72.94z"/>
<g>
	<g>
		<path class="st1" d="M37.31,59.14c0.44,0,0.88,0,1.32,0c2.43-1.41,3.32-3.42,2.71-6.21c-0.83-3.82-1.51-7.67-2.27-11.6
			c5.51,0,10.9,0.01,16.28,0c2.48-0.01,4.05-1.09,4.79-3.46c0.35-1.13,0.43-2.34,0.64-3.52c0-0.99,0-1.98,0-2.98
			c-0.55-1.87-0.98-3.79-1.66-5.62c-1.14-3.02-2.38-6-3.7-8.95c-1.33-2.99-2.73-5.96-4.23-8.87c-0.69-1.34-1.96-2.05-3.52-2.05
			C39.92,5.87,32.16,5.84,24.4,5.89c-3.51,0.02-5.62,2.23-5.63,5.73c-0.01,8.92,0,17.84-0.01,26.75c0,1.81,0.64,3.28,1.94,4.53
			c2.7,2.59,5.34,5.24,8.02,7.86C31.58,53.56,34.45,56.35,37.31,59.14z"/>
		<path class="st1" d="M15.2,21.96c0-4.68-0.04-9.36,0.02-14.04c0.02-1.49-0.54-2.1-2.03-2.06c-2.37,0.06-4.74,0.04-7.1,0.01
			c-1.34-0.02-1.88,0.6-1.88,1.9c0.01,9.58,0.01,19.16,0,28.74c0,1.3,0.54,1.89,1.89,1.86c2.42-0.06,4.85-0.06,7.27,0
			c1.36,0.03,1.85-0.54,1.84-1.87C15.17,31.65,15.2,26.8,15.2,21.96z"/>
	</g>
</g>
</svg>
