<?xml version="1.0" encoding="utf-8"?>
<!-- Generator: Adobe Illustrator 26.3.1, SVG Export Plug-In . SVG Version: 6.00 Build 0)  -->
<svg version="1.1" id="Layer_1" xmlns="http://www.w3.org/2000/svg" xmlns:xlink="http://www.w3.org/1999/xlink" x="0px" y="0px"
	 viewBox="0 0 601.5 601.5" enable-background="new 0 0 601.5 601.5" xml:space="preserve">
<g>
	<path fill="#014548" d="M300.8,561.5C157,561.5,40,444.5,40,300.8S157,40,300.8,40s260.7,117,260.7,260.7S444.5,561.5,300.8,561.5z
		 M300.8,53.7c-136.2,0-247,110.8-247,247s110.8,247,247,247s247-110.8,247-247S437,53.7,300.8,53.7z"/>
	
		<rect x="357" y="227.3" transform="matrix(0.7071 -0.7071 0.7071 0.7071 -85.8396 338.024)" fill="#014548" width="16.1" height="90.7"/>
	
		<rect x="315.5" y="319.1" transform="matrix(0.7071 -0.7071 0.7071 0.7071 -124.9088 352.7115)" fill="#014548" width="95.7" height="16.1"/>
	<rect x="198.7" y="292.7" fill="#014548" width="189" height="16.1"/>
</g>
</svg>
