<?xml version="1.0" encoding="utf-8"?>
<!-- Generator: Adobe Illustrator 28.0.0, SVG Export Plug-In . SVG Version: 6.00 Build 0)  -->
<svg version="1.1" id="Layer_5" xmlns="http://www.w3.org/2000/svg" xmlns:xlink="http://www.w3.org/1999/xlink" x="0px" y="0px"
	 viewBox="0 0 460 371" enable-background="new 0 0 460 371" xml:space="preserve">
<g>
	<path fill="#003399" d="M-1480.6,1083.4c-33.8,0-67.6,0.2-101.3-0.1c-27.2-0.2-48.8-17.6-55.1-44c-1-4.3-1.5-8.9-1.5-13.3
		c-0.1-25.3-0.1-50.6,0-75.9c0.2-43.5,28.8-79.7,71.1-89.9c8.9-2.2,17.8-4.1,24.4-11.2c6.5-7,10.3-14.9,10.3-24.6
		c0-9.9,0.4-19.8,0.3-29.7c0-1.2-1.1-2.5-2-3.4c-18.2-17.4-29.5-38.5-33.5-63.3c-1.3-7.9-1.2-15.9-1.4-23.9
		c-0.2-12.5-0.7-25,0.2-37.5c2-25.4,16.5-41.3,39.9-50.2c34.9-13.2,69.4-12.4,103.6,2.4c22,9.5,33.4,26.4,34.2,49.9
		c0.7,18.9,0.8,37.9-0.6,56.6c-2,26.9-13.7,49.6-33.6,68.1c-1.4,1.3-2.6,3.7-2.7,5.6c-0.3,8.8-0.2,17.6-0.1,26.4
		c0.2,14.6,10.5,28,24.5,32.1c8.3,2.5,16.9,4,24.7,7.5c36.1,16.1,55,44.4,56.4,83.7c0.9,26.1,0.3,52.2,0.1,78.3
		c-0.2,31.1-24.6,55.7-55.7,56.4c-0.6,0-1.3,0-1.9,0C-1413.6,1083.4-1447.1,1083.4-1480.6,1083.4
		C-1480.6,1083.4-1480.6,1083.4-1480.6,1083.4z M-1570.6,1068.3c60.5,0,120.1,0,180.2,0c0-2,0-3.8,0-5.5c0-17.5,0-34.9,0-52.4
		c0-5.9,3.2-9.8,7.6-9.8c4.6,0,7.3,3.7,7.3,9.9c0,17.5,0,34.9,0,52.4c0,1.7,0,3.5,0,5.2c1,0,1.4,0.1,1.9,0
		c10.1-1.4,18.3-6.1,25.3-13.4c8.6-9,11.5-20.5,11.9-31.9c1-24.8,0.5-49.6,0.2-74.4c-0.4-30.5-20.5-59.1-48.8-70.5
		c-3.7-1.5-5.5-0.8-7.9,2.3c-20.9,27.7-42,55.3-63.1,82.9c-3.4,4.4-6.7,8.9-10.1,13.3c20,13.7,26.3,27,21.2,44.3
		c-4.3,14.8-18.1,25.6-33.3,26.1c-16.3,0.5-30.3-8.7-35.9-23.7c-2.7-7.1-3.2-14.3-1.2-21.7c3.2-11.7,10.8-19.6,21.6-24.8
		c-0.8-1.1-1.2-1.7-1.7-2.4c-24.2-31.7-48.4-63.4-72.4-95.1c-2-2.6-3.7-2.7-6.4-1.6c-26.3,11-43,30.3-48.1,58.4
		c-2,11.4-1.4,23.3-1.5,34.9c-0.1,20-0.4,40,0.3,60c0.7,20,18.5,37.1,37.5,37c0-4.6,0-9.2,0-13.8c0-15.1,0-30.1,0-45.2
		c0-5.5,2.8-8.9,7.2-9c4.6-0.2,7.6,3.3,7.8,9c0,1.1,0,2.2,0,3.4c0,14.9,0,29.8,0,44.7C-1570.6,1060.7-1570.6,1064.4-1570.6,1068.3z
		 M-1406.3,716.2c-0.8-0.3-1.4-0.6-2-0.7c-30.6-5-58.9-15.4-84.5-33.2c-7.2-5-15.5-6.5-24.3-4.9c-14.7,2.8-25.9,11.3-35.7,22
		c-0.9,0.9-1.3,2.6-1.4,3.9c-1.7,32,9.6,58.7,33.4,79.9c16.5,14.7,35.8,21.7,58.1,15.6C-1431,790-1404.2,750.8-1406.3,716.2z
		 M-1481.3,970.1c17.8-23.3,35.5-46.4,53.1-69.4c-8.1,5.5-15.5,11.7-22.9,17.8c-5.7,4.7-9,4.3-13.7-1.6c-4.9-6.2-9.8-12.5-15.1-19.1
		c-3.7,5.5-7.3,10.4-10.4,15.6c-7,11.9-11.3,12.7-21.8,3.1c-7.2-6.6-14.8-12.8-22.3-19.1c-0.2,0.2-0.4,0.4-0.6,0.6
		C-1517.1,921.9-1499.4,945.8-1481.3,970.1z M-1544.3,869.8c13.9,12,27.9,24,42.1,36.2c4.1-6.4,8-12.4,11.9-18.6
		c-12.8-11-25.2-21.7-37.5-32.4C-1533.3,860-1538.6,864.7-1544.3,869.8z M-1432.7,854.9c-11.9,10.1-24.1,20.5-36.6,31
		c4.7,5.9,8.9,11.4,13.4,17.1c13.5-11.5,26.6-22.7,39.2-33.5C-1422.2,864.5-1427.3,859.9-1432.7,854.9z"/>
	<path fill="#E31E24" d="M-1293.9,835c0,2.5,0,4.5,0,6.5c0,76.7,0,153.4,0,230.1c0,2.4-0.1,4.8-0.9,7.1c-1.2,3.7-4.2,5.1-8,4.6
		c-3.8-0.5-6-2.8-6.3-6.7c-0.1-1.3-0.1-2.6-0.1-3.8c0-107.8,0-215.5,0-323.3c0-1.6-0.1-3.2,0.2-4.8c0.8-5,7.4-8.3,11.4-5.2
		c11.9,9.3,24.5,8.3,37.6,3.8c12.3-4.2,24.7-8.6,37.3-12c13.8-3.8,27.1-1.3,38.6,7.4c2.4,1.8,4.5,5.7,4.5,8.7
		c0.4,24.5,0.2,49,0.2,73.5c0,7.4-6.6,11.4-12.5,7c-11.7-8.8-24-8.1-36.8-3.8c-5.3,1.8-10.6,3.6-15.7,5.7
		C-1260.2,836.2-1276.3,840.3-1293.9,835z"/>
</g>
<g>
	<path fill="#003399" d="M453.7,299.8c-0.7-3.2-1-6.5-2-9.6c-2.2-6.7-5.2-12.9-9.5-18.5c-8.2-10.7-18.8-17.8-31.7-21.2
		c-5.9-1.5-12.2-2-18.4-2c-75.9-0.1-151.8-0.1-227.7-0.1c-1.7,0-3.4,0-5.1,0c-4.7-0.1-9-1.4-13.2-3.8c-10.7-6.3-16-21.2-9.8-33.2
		c4.9-9.5,12.6-14.8,23.4-14.8c35.9-0.1,71.7,0,107.6,0c9.1,0,16-3.4,19.8-12.2c2.7-6.3,1.9-12.1-1.6-17.6c-4-6.1-9.9-8.8-17.2-8.8
		c-36.1,0.1-72.2,0.1-108.3,0c-8.6,0-16.9,1.5-24.8,4.6c-5.9,2.4-11.4,5.8-16.4,9.9c-8.1,6.8-14.7,14.8-18.4,24.8
		c-1.8,4.8-3.1,9.9-4.3,14.9c-2.6,11.4-0.7,22.5,3.1,33.3c2.2,6.1,5.5,11.7,9.6,16.8c8.1,10.2,18.4,17.4,30.7,21.6
		c7.2,2.5,14.8,3.1,22.4,3.1c55.8,0,111.7,0,167.5,0c21.4,0,42.7-0.1,64.1,0c8.3,0.1,15.6,2.8,19.7,10.7c3.3,6.3,3.4,12.6-0.3,18.8
		c-4.4,7.4-11,10.1-19.3,10c-93.4,0-186.7,0-280.1,0v-0.1H25.7c-10.9,0-19.8,8.9-19.8,19.8v0c0,10.9,8.9,19.8,19.8,19.8h5.6
		c0,0,0,0,0,0c60,0.1,119.9,0.1,179.9,0.1c57.7,0,115.4,0,173.2,0c6.8,0,13.4,0.1,20.3-1.4c9.3-2.1,17.9-5.2,25.6-10.7
		c7.6-5.4,13.4-12.4,17.6-20.6c2.4-4.8,3.4-10.3,5.1-15.4C454.9,307.1,453.7,299.8,453.7,299.8z"/>
	<path fill="#E31E24" d="M425,83.3c0-43.4-35.2-78.5-78.5-78.5S267.9,40,267.9,83.3c0,9.2,1.6,18,4.5,26.2c0,0,0,0,0,0
		c0,0.1,0.1,0.2,0.2,0.4c1.9,5.4,4.5,10.5,7.5,15.3c4.5,7.9,9.7,15.3,14.9,22.7c5.1,7.1,10.7,13.7,16.4,20.3
		c5.7,6.5,11.8,12.6,17.7,18.9c3.5,3.7,7,7.4,12.3,8.7c5.4,1.3,10.6,0.9,15.2-2.2c2.9-1.9,5.5-4.3,7.9-6.9
		c8.4-9.3,17-18.5,24.9-28.1c6.7-8.1,12.9-16.5,18.7-25.2c3.3-4.9,6.2-10,8.8-15.3c0.2-0.3,0.3-0.7,0.5-1c0.2-0.4,0.4-0.8,0.6-1.3
		c0,0,0,0,0,0C422.5,105.8,425,94.9,425,83.3z M378.8,104.9c-2.5,4.1-5.1,8.1-7.7,12.1c-6.6,10.1-14.5,19.1-22.4,28.2
		c-1.9,2.2-2.5,2.3-4.4,0.1c-5.5-6.7-11.2-13.3-16.4-20.2c-4.7-6.2-9.1-12.6-13.1-19.3c-1.3-2.2-2.5-4.4-3.6-6.7l0.1,0
		c-2.1-4.8-3.4-10.1-3.4-15.7c0-21.3,17.3-38.6,38.6-38.6c1.2,0,2.5,0.1,3.7,0.2c0.2,0,0.4,0,0.6,0.1c0.4,0,0.8,0.1,1.2,0.1
		c4.3,0.6,8.4,2,12.3,3.9c12.4,6.4,20.8,19.4,20.8,34.3c0,8-2.4,15.4-6.5,21.5L378.8,104.9z"/>
</g>
</svg>
