<?xml version="1.0" encoding="utf-8"?>
<!-- Generator: Adobe Illustrator 28.0.0, SVG Export Plug-In . SVG Version: 6.00 Build 0)  -->
<svg version="1.1" id="Layer_5" xmlns="http://www.w3.org/2000/svg" xmlns:xlink="http://www.w3.org/1999/xlink" x="0px" y="0px"
	 viewBox="0 0 516.3 543.8" enable-background="new 0 0 516.3 543.8" xml:space="preserve">
<g>
	<path fill="#888888" d="M442,541.5H71.5c-15.3,0-30.3-4-43.3-12C7.9,517.1,3.3,501.5,3.3,466.3c0-77.3,0-154.5,0-231.8
		c0-5.4,0-10.8,0-16.3h510.3c0,89.5,0.3,177.8-0.2,266.1c-0.1,15.9-5.2,31.5-18.7,41.3c-2.1,1.5-4.3,2.9-6.6,4.2
		C474,537.7,458.1,541.5,442,541.5z M174.2,329.2c0-15.7-14.9-30.5-30.1-29.9c-14.7,0.6-29.1,15.5-28.7,29.9
		c0.4,15.6,13.7,28.5,29.5,28.5C160.7,357.7,174.3,344.6,174.2,329.2z M258.1,457c16.3,0.1,29-12,29.3-27.8
		c0.3-16.8-12.9-30.3-29.2-30c-15.9,0.2-28.5,13.1-28.4,29.1C229.8,444.5,241.9,456.8,258.1,457z M372.2,357.6
		c15.7-0.1,29.5-13.5,29.4-28.5c-0.1-15.4-15.4-30.4-30.4-29.8c-14.9,0.6-29,15.4-28.5,30C343.2,345,356.4,357.7,372.2,357.6z
		 M144.5,457c16.3,0.2,29.6-12.2,29.7-27.7c0.2-15.6-14.4-30.4-29.7-30.1c-14.7,0.3-29.2,14.8-29.2,29.3
		C115.4,443.9,128.5,456.8,144.5,457z M229.7,328.5c-0.1,16.1,12.3,28.9,28.2,29.2c15.8,0.3,29.1-12.3,29.4-28
		c0.4-16.5-13.1-30.5-29.1-30.4C242.7,299.4,229.8,312.6,229.7,328.5z"/>
	<path fill="#888888" d="M116.8,59.4c3-24-7.7-52.7,27.5-56.9c13.5-1.6,24.1,6.7,26.9,19.6c2.4,11,0.5,23,0.5,35.8
		c57.9,0,114.1,0,173.1,0c0-8.5-0.1-17.4,0-26.2c0.4-17.6,11.5-29.6,27.4-29.6c15.9,0,27,11.9,27.4,29.6c0.2,8.5,0,17,0,27.5
		c18.4,0,35.4-0.1,52.4,0c37.7,0.1,59.1,19.6,61.6,57.5c1.2,17.5,0.2,35.2,0.2,54c-169.9,0-339.1,0-511.6,0
		c1.3-24.1,0.7-48.8,4.6-72.8c3.6-21.9,27-38,50.1-38.5C76.4,59.1,96,59.4,116.8,59.4z"/>
</g>
</svg>
