<?xml version="1.0" encoding="utf-8"?>
<!-- Generator: Adobe Illustrator 28.0.0, SVG Export Plug-In . SVG Version: 6.00 Build 0)  -->
<svg version="1.1" id="Layer_5" xmlns="http://www.w3.org/2000/svg" xmlns:xlink="http://www.w3.org/1999/xlink" x="0px" y="0px"
	 viewBox="0 0 264.8 373.6" enable-background="new 0 0 264.8 373.6" xml:space="preserve">
<path fill="#888888" d="M131.8,367.7c-0.6-1.2-0.8-2.1-1.3-2.7c-37.9-46.3-73.3-94.4-100.9-147.7c-10.4-20.1-19.9-40.7-23.5-63.1
	c-7.4-45.8,6.9-84.9,41.5-115C88.7,3.4,136.4-3.8,185.8,18.9c49.5,22.7,74.1,63.6,74.8,118.2c0.3,19.4-5.9,37.8-13,55.6
	c-12.1,30.2-28.5,58-46.5,85c-20.1,30-42,58.6-65.6,86C134.7,364.6,133.8,365.5,131.8,367.7z M204.4,137c0-40-32.3-72.1-72.3-72.1
	c-39.7,0.1-71.8,32.2-71.9,72c-0.1,39.8,32.4,72.2,72.3,72.1C172.2,209,204.5,176.7,204.4,137z"/>
</svg>
