<?xml version="1.0" encoding="utf-8"?>
<!-- Generator: Adobe Illustrator 26.3.1, SVG Export Plug-In . SVG Version: 6.00 Build 0)  -->
<svg version="1.1" id="Layer_1" xmlns="http://www.w3.org/2000/svg" xmlns:xlink="http://www.w3.org/1999/xlink" x="0px" y="0px"
	 viewBox="0 0 14.1 14.1" style="enable-background:new 0 0 14.1 14.1;" xml:space="preserve">
<style type="text/css">
	.st0{fill:#014548;}
</style>
<path class="st0" d="M6.5,2.4c3.3,0,5.5,3.3,4.3,6.3l-0.6,1.5c-0.2,0.5-0.1,1,0.4,1.4l0.2,0.2H6.9c-2.8,0-5-2.2-5-5
	c0-2.4,2-4.4,4.4-4.4L6.5,2.4L6.5,2.4z M11.7,9.1c1.5-3.7-1.2-7.7-5.2-7.7H6.3c-3,0-5.4,2.4-5.4,5.4c0,3.3,2.7,6,6,6h5.2
	c0.3,0,0.5-0.2,0.5-0.5c0-0.2-0.1-0.3-0.2-0.4l-1.3-1c-0.1,0-0.1-0.1,0-0.2L11.7,9.1z"/>
</svg>
