<?xml version="1.0" encoding="utf-8"?>
<!-- Generator: Adobe Illustrator 26.3.1, SVG Export Plug-In . SVG Version: 6.00 Build 0)  -->
<svg version="1.1" id="Layer_1" xmlns="http://www.w3.org/2000/svg" xmlns:xlink="http://www.w3.org/1999/xlink" x="0px" y="0px"
	 viewBox="0 0 601.5 601.5" enable-background="new 0 0 601.5 601.5" xml:space="preserve">
<g>
	<path fill="#014548" d="M430.5,158.9c-15.8,0-28.7,12.8-28.7,28.7c0,15.8,12.8,28.7,28.7,28.7c15.8,0,28.7-12.8,28.7-28.7
		C459.2,171.8,446.3,158.9,430.5,158.9"/>
	<path fill="#014548" d="M303.1,393.2c-42.5,0-77.1-34.6-77.1-77.1c0-42.5,34.6-77.1,77.1-77.1c42.5,0,77.1,34.6,77.1,77.1
		C380.2,358.6,345.6,393.2,303.1,393.2 M303.1,195.7c-66.4,0-120.4,54-120.4,120.4c0,66.4,54,120.4,120.4,120.4
		c66.4,0,120.4-54,120.4-120.4C423.5,249.7,369.5,195.7,303.1,195.7"/>
	<path fill="#014548" d="M203.5,117.6c-55.6,0-100.8,45.2-100.8,100.8v195.2c0,55.6,45.2,100.8,100.8,100.8h195.1
		c55.6,0,100.8-45.2,100.8-100.8V218.5c0-55.6-45.2-100.8-100.8-100.8H203.5z M398.7,560.5H203.5c-81,0-146.8-65.9-146.8-146.8
		V218.5c0-80.9,65.9-146.8,146.8-146.8h195.1c81,0,146.8,65.9,146.8,146.8v195.2C545.5,494.6,479.6,560.5,398.7,560.5"/>
</g>
</svg>
