<?xml version="1.0" encoding="utf-8"?>
<!-- Generator: Adobe Illustrator 26.3.1, SVG Export Plug-In . SVG Version: 6.00 Build 0)  -->
<svg version="1.1" id="Layer_1" xmlns="http://www.w3.org/2000/svg" xmlns:xlink="http://www.w3.org/1999/xlink" x="0px" y="0px"
	 viewBox="0 0 11.5 12.1" style="enable-background:new 0 0 11.5 12.1;" xml:space="preserve">
<style type="text/css">
	.st0{fill:#014548;}
	.st1{fill:none;stroke:#014548;stroke-width:0.1;stroke-miterlimit:10;}
</style>
<g>
	<path class="st0" d="M1,11.2c2.4,0,7.2,0,9.5,0C10.3,5.3,1.2,5.4,1,11.2 M5.8,11.8H0.7H0.4c-0.4-7.3,11.2-7.3,10.7,0h-0.3H5.8z
		 M7.2,1.6c-1.9-2-4.9,1.1-3,3C6.2,6.5,9.2,3.5,7.2,1.6 M5.8,0.4c3.5,0,3.5,5.4,0,5.4C2.2,5.8,2.2,0.3,5.8,0.4"/>
	<path class="st1" d="M1,11.2c2.4,0,7.2,0,9.5,0C10.3,5.3,1.2,5.4,1,11.2z M5.8,11.8H0.7H0.4c-0.4-7.3,11.2-7.3,10.7,0h-0.3H5.8z
		 M7.2,1.6c-1.9-2-4.9,1.1-3,3C6.2,6.5,9.2,3.5,7.2,1.6z M5.8,0.4c3.5,0,3.5,5.4,0,5.4C2.2,5.8,2.2,0.3,5.8,0.4z"/>
</g>
</svg>
