<?xml version="1.0" encoding="utf-8"?>
<!-- Generator: Adobe Illustrator 26.3.1, SVG Export Plug-In . SVG Version: 6.00 Build 0)  -->
<svg version="1.1" id="Layer_1" xmlns="http://www.w3.org/2000/svg" xmlns:xlink="http://www.w3.org/1999/xlink" x="0px" y="0px"
	 viewBox="0 0 601.5 601.5" style="enable-background:new 0 0 601.5 601.5;" xml:space="preserve">
<style type="text/css">
	.st0{fill:#FFFFFF;}
</style>
<g>
	<path class="st0" d="M16.7,302.6c0-156.7,127.4-284.1,284.1-284.1s284.1,127.3,284.1,284S457.4,586.6,300.8,586.6
		S16.7,459.3,16.7,302.6z M31.7,302.5c0,148.4,120.7,269.1,269.1,269.1s269.1-120.7,269.1-269.1S449.2,33.4,300.8,33.4
		C152.5,33.4,31.7,154.1,31.7,302.5z"/>
	
		<rect x="244.7" y="348.1" transform="matrix(0.7071 -0.7071 0.7071 0.7071 -160.0876 324.5548)" class="st0" width="134" height="14.9"/>
	
		<rect x="299.6" y="205.5" transform="matrix(0.7071 -0.7071 0.7071 0.7071 -98.5536 295.1926)" class="st0" width="14.9" height="122.2"/>
</g>
</svg>
