<?xml version="1.0" encoding="utf-8"?>
<!-- Generator: Adobe Illustrator 26.3.1, SVG Export Plug-In . SVG Version: 6.00 Build 0)  -->
<svg version="1.1" id="Layer_1" xmlns="http://www.w3.org/2000/svg" xmlns:xlink="http://www.w3.org/1999/xlink" x="0px" y="0px"
	 viewBox="0 0 601.5 601.5" enable-background="new 0 0 601.5 601.5" xml:space="preserve">
<path fill="#014548" d="M417.9,509.7c-0.5,0-1,0-1.5,0c-24.4,0-112.9-8.1-216.8-111.9C111.7,309.8,79.4,244.4,88.1,171.9
	c1.2-9.8,3.6-19.5,7.1-28.6c3.9-10.1,9.3-19.5,15.9-28l2.8-4l15.5-15.6c8.5-8.4,19.2-12.2,31.5-12.9c10.3-0.4,21.8,4.2,29.8,12
	l63,62.8c16.6,17.4,16.2,44.9-0.9,61.4l-26,25.9c14,26.9,31.8,51.4,52.9,72.9c21.4,21.1,46,38.8,72.8,52.8l26-26
	c8.5-8.3,19.5-12.9,31.3-12.9c0.2,0,0.5,0,0.8,0c10.7,0,21.4,4.3,29.1,11.9l63,63c16.6,17.2,16.1,44.6-1,61.2l-19.2,18
	c-8.5,6.7-18,12.1-28.2,16.1c-9.2,3.6-18.9,6-28.7,7.2C422.8,509.5,420.3,509.7,417.9,509.7z M161.4,112.9c-4.1,0-7.9,1.4-10.7,4.1
	L136,132c-5.8,7.9-9.8,14.9-12.6,22.3c-2.7,6.9-4.4,14-5.3,21.3c-7.5,62.2,22.3,120.3,102.9,201C329.4,484.8,416.1,479.9,422,479.3
	c7.1-0.8,14.3-2.7,21.3-5.4c7.4-2.9,14.4-6.8,20.7-11.7l3.2-2.6l13.4-13.2c2.6-2.6,4.1-6.1,4.2-9.8c0.1-3.3-1.2-6.4-3.5-8.8
	l-62.7-62.7c-2.3-2.2-4.8-3.2-8.5-3.5c0,0-0.1,0-0.1,0c-3.8,0-7.5,1.5-10.2,4.1l-33.9,33.9c-4.4,4.7-11.8,5.9-17.7,2.9l-9.4-5.2
	c-29.6-15.2-56.7-34.8-80.3-58.1c-23.7-24.1-43.4-51.4-58.8-81.3l-4.8-8.3c-3.4-6-2.4-13.4,2.5-18.2l34.2-34
	c5.4-5.1,5.6-13.6,0.6-18.9l-62.6-62.5C167.4,114.1,164.4,112.9,161.4,112.9z"/>
</svg>
