<?xml version="1.0" encoding="utf-8"?>
<!-- Generator: Adobe Illustrator 28.0.0, SVG Export Plug-In . SVG Version: 6.00 Build 0)  -->
<svg version="1.1" id="Layer_5" xmlns="http://www.w3.org/2000/svg" xmlns:xlink="http://www.w3.org/1999/xlink" x="0px" y="0px"
	 viewBox="0 0 595 860.9" enable-background="new 0 0 595 860.9" xml:space="preserve">
<g>
	<path fill="#90939E" d="M294.7,13.7c138.4,0,256.6,95.7,284.2,228.9c14,67.7,6.4,133.4-27.8,193.8C488.6,546.8,424.5,656.2,361,766
		c-12.2,21.1-24.5,42.1-36.9,63.1c-14.2,24-39.3,24-53.4,0c-65.9-112.4-132-224.6-197.2-337.3c-21.7-37.6-44.3-75.1-54.7-118.1
		c-20.5-85.1-7.2-164.6,42.8-236.5C111.2,66,180.8,26.2,266.8,15.4C276.9,14.1,287.2,14.1,294.7,13.7z M297,764.3
		c2.6-4,4.3-6.5,5.8-9c38.8-65.9,78.1-131.6,116.3-197.9c30.9-53.7,63.7-106.7,89.9-162.7c36-76.9,27.3-154.1-20.4-223.5
		C438.2,97.5,365.5,62.3,276,71c-93.5,9.1-159.5,59.6-194.6,146.8c-27,67.1-22.2,133.8,13.6,197.1c45.6,80.6,91.9,160.7,138.2,240.8
		C253.9,691.6,275.1,727,297,764.3z"/>
	<path fill="#90939E" d="M297.6,426.5c-74.6,0.4-135.5-60.2-135.9-135.2c-0.3-74.6,60.3-135.5,135.2-135.9
		c74.5-0.4,135.5,60.4,135.9,135.3C433.2,365.4,372.7,426.2,297.6,426.5z M297.7,371c43.9-0.3,80-36.8,79.6-80.7
		c-0.4-43.5-36.5-79.3-80-79.4c-43.9,0-80.2,36.4-80.1,80.2C217.4,335.1,253.9,371.3,297.7,371z"/>
</g>
</svg>
