<?xml version="1.0" encoding="utf-8"?>
<!-- Generator: Adobe Illustrator 28.0.0, SVG Export Plug-In . SVG Version: 6.00 Build 0)  -->
<svg version="1.1" id="Layer_5" xmlns="http://www.w3.org/2000/svg" xmlns:xlink="http://www.w3.org/1999/xlink" x="0px" y="0px"
	 viewBox="0 0 421.5 300.7" enable-background="new 0 0 421.5 300.7" xml:space="preserve">
<g>
	<path fill="#003399" d="M-1496.8,1049.7c-33.8,0-67.6,0.2-101.3-0.1c-27.2-0.2-48.8-17.6-55.1-44c-1-4.3-1.5-8.9-1.5-13.3
		c-0.1-25.3-0.1-50.6,0-75.9c0.2-43.5,28.8-79.7,71.1-89.9c8.9-2.2,17.8-4.1,24.4-11.2c6.5-7,10.3-14.9,10.3-24.6
		c0-9.9,0.4-19.8,0.3-29.7c0-1.2-1.1-2.5-2-3.4c-18.2-17.4-29.5-38.5-33.5-63.3c-1.3-7.9-1.2-15.9-1.4-23.9
		c-0.2-12.5-0.7-25,0.2-37.5c2-25.4,16.5-41.3,39.9-50.2c34.9-13.2,69.4-12.4,103.6,2.4c22,9.5,33.4,26.4,34.2,49.9
		c0.7,18.9,0.8,37.9-0.6,56.6c-2,26.9-13.7,49.6-33.6,68.1c-1.4,1.3-2.6,3.7-2.7,5.6c-0.3,8.8-0.2,17.6-0.1,26.4
		c0.2,14.6,10.5,28,24.5,32.1c8.3,2.5,16.9,4,24.7,7.5c36.1,16.1,55,44.4,56.4,83.7c0.9,26.1,0.3,52.2,0.1,78.3
		c-0.2,31.1-24.6,55.7-55.7,56.4c-0.6,0-1.3,0-1.9,0C-1429.9,1049.7-1463.3,1049.7-1496.8,1049.7
		C-1496.8,1049.7-1496.8,1049.7-1496.8,1049.7z M-1586.9,1034.7c60.5,0,120.1,0,180.2,0c0-2,0-3.8,0-5.5c0-17.5,0-34.9,0-52.4
		c0-5.9,3.2-9.8,7.6-9.8c4.6,0,7.3,3.7,7.3,9.9c0,17.5,0,34.9,0,52.4c0,1.7,0,3.5,0,5.2c1,0,1.4,0.1,1.9,0
		c10.1-1.4,18.3-6.1,25.3-13.4c8.6-9,11.5-20.5,11.9-31.9c1-24.8,0.5-49.6,0.2-74.4c-0.4-30.5-20.5-59.1-48.8-70.5
		c-3.7-1.5-5.5-0.8-7.9,2.3c-20.9,27.7-42,55.3-63.1,82.9c-3.4,4.4-6.7,8.9-10.1,13.3c20,13.7,26.3,27,21.2,44.3
		c-4.3,14.8-18.1,25.6-33.3,26.1c-16.3,0.5-30.3-8.7-35.9-23.7c-2.7-7.1-3.2-14.3-1.2-21.7c3.2-11.7,10.8-19.6,21.6-24.8
		c-0.8-1.1-1.2-1.7-1.7-2.4c-24.2-31.7-48.4-63.4-72.4-95.1c-2-2.6-3.7-2.7-6.4-1.6c-26.3,11-43,30.3-48.1,58.4
		c-2,11.4-1.4,23.3-1.5,34.9c-0.1,20-0.4,40,0.3,60c0.7,20,18.5,37.1,37.5,37c0-4.6,0-9.2,0-13.8c0-15.1,0-30.1,0-45.2
		c0-5.5,2.8-8.9,7.2-9c4.6-0.2,7.6,3.3,7.8,9c0,1.1,0,2.2,0,3.4c0,14.9,0,29.8,0,44.7C-1586.9,1027-1586.9,1030.7-1586.9,1034.7z
		 M-1422.6,682.5c-0.8-0.3-1.4-0.6-2-0.7c-30.6-5-58.9-15.4-84.5-33.2c-7.2-5-15.5-6.5-24.3-4.9c-14.7,2.8-25.9,11.3-35.7,22
		c-0.9,0.9-1.3,2.6-1.4,3.9c-1.7,32,9.6,58.7,33.4,79.9c16.5,14.7,35.8,21.7,58.1,15.6C-1447.2,756.4-1420.5,717.1-1422.6,682.5z
		 M-1497.5,936.5c17.8-23.3,35.5-46.4,53.1-69.4c-8.1,5.5-15.5,11.7-22.9,17.8c-5.7,4.7-9,4.3-13.7-1.6c-4.9-6.2-9.8-12.5-15.1-19.1
		c-3.7,5.5-7.3,10.4-10.4,15.6c-7,11.9-11.3,12.7-21.8,3.1c-7.2-6.6-14.8-12.8-22.3-19.1c-0.2,0.2-0.4,0.4-0.6,0.6
		C-1533.3,888.3-1515.6,912.1-1497.5,936.5z M-1560.5,836.1c13.9,12,27.9,24,42.1,36.2c4.1-6.4,8-12.4,11.9-18.6
		c-12.8-11-25.2-21.7-37.5-32.4C-1549.6,826.3-1554.8,831-1560.5,836.1z M-1449,821.2c-11.9,10.1-24.1,20.5-36.6,31
		c4.7,5.9,8.9,11.4,13.4,17.1c13.5-11.5,26.6-22.7,39.2-33.5C-1438.4,830.9-1443.6,826.2-1449,821.2z"/>
	<path fill="#E31E24" d="M-1310.1,801.4c0,2.5,0,4.5,0,6.5c0,76.7,0,153.4,0,230.1c0,2.4-0.1,4.8-0.9,7.1c-1.2,3.7-4.2,5.1-8,4.6
		c-3.8-0.5-6-2.8-6.3-6.7c-0.1-1.3-0.1-2.6-0.1-3.8c0-107.8,0-215.5,0-323.3c0-1.6-0.1-3.2,0.2-4.8c0.8-5,7.4-8.3,11.4-5.2
		c11.9,9.3,24.5,8.3,37.6,3.8c12.3-4.2,24.7-8.6,37.3-12c13.8-3.8,27.1-1.3,38.6,7.4c2.4,1.8,4.5,5.7,4.5,8.7
		c0.4,24.5,0.2,49,0.2,73.5c0,7.4-6.6,11.4-12.5,7c-11.7-8.8-24-8.1-36.8-3.8c-5.3,1.8-10.6,3.6-15.7,5.7
		C-1276.5,802.5-1292.5,806.6-1310.1,801.4z"/>
</g>
<g>
	<path fill="#E31E24" d="M332.4,138c0,5-2.2,8.5-5.3,11.5c-5.5,5.2-10.9,10.4-16.4,15.6c-1.4,1.4-1.5,2.8-0.9,4.5
		c1.6,5,3.1,10,4.7,15.1c2.4,8,4.8,16,7.2,24c1.3,4.4,2.8,8.7,4.1,13.1c0.6,1.9,0.4,3.6-1.3,5.1c-2.5,2.2-4.7,4.7-7.1,7
		c-2.6,2.5-4.8,2.2-6.6-0.9c-3.5-6.3-7-12.6-10.5-18.9c-3.7-6.6-7.4-13.2-11.1-19.9c-0.7-1.3-1.6-2.6-2-4c-0.7-2.1-1.5-1.8-2.8-0.5
		c-5.7,5.7-11.5,11.4-17.2,17.1c-0.2,0.2-0.4,0.5-0.6,0.6c-4.2,2.7-3.6,6.4-2.6,10.4c0.9,3.4,1.6,6.9,2.3,10.4
		c0.1,0.6,0,1.5-0.4,1.9c-1.7,2-3.5,4-5.5,5.7c-1.7,1.4-3.4,0.4-4.8-1c-5.9-5.9-11.8-11.7-17.6-17.6c-4.9-4.9-9.7-9.7-14.6-14.6
		c-2.5-2.5-2.5-3.7-0.1-6.1c5-4.8,4.2-6,11.4-3.8c2.9,0.9,5.9,1.3,8.8,2c1.9,0.5,3.4,0.1,4.9-1.4c6.4-6.6,12.8-13,19.2-19.5
		c1.3-1.3,1.2-2.3-0.6-3.4c-2.4-1.4-4.9-2.7-7.3-4c-6.3-3.5-12.6-7.1-18.9-10.5c-4.8-2.7-9.6-5.2-14.5-7.9c-0.9-0.5-1.7-0.9-2.5-1.5
		c-1.7-1.3-2.1-3.3-0.6-4.9c2.8-3,5.6-6,8.6-8.7c0.9-0.8,2.7-0.9,4-0.6c3.6,0.9,7.2,2.3,10.8,3.3c5.1,1.5,10.1,2.8,15.2,4.2
		c2.3,0.6,4.6,1.4,6.9,2.1c6,1.8,12.2,3.1,17.9,5.5c4,1.7,5.7,0.2,8-2.4c5.1-5.7,10.3-11.2,15.9-16.5c4.4-4.2,9.9-4.3,15.2-1.8
		C330.3,129,332.2,133.3,332.4,138z"/>
	<g>
		<path fill="#003399" d="M117.4,162.6c0,2.1,0.8,3,3,3c3.2-0.1,6.5,0,9.7,0c0,0,0,0,0,0c3.2,0,6.5,0,9.7,0c1.8,0,2.7-0.6,2.7-2.5
			c0-5.7,0-11.3,0-17c0-1.8-0.8-2.6-2.6-2.6c-6.6,0-13.3,0-19.9,0c-1.9,0-2.7,0.9-2.6,2.8C117.5,151.8,117.5,157.2,117.4,162.6z"/>
		<path fill="#003399" d="M119.8,122.1c6.8,0,13.6,0,20.4,0c1.6,0,2.4-0.7,2.4-2.3c0-5.7,0-11.5,0-17.2c0-1.8-0.9-2.6-2.7-2.5
			c-3.2,0.1-6.3,0-9.5,0c0,0,0,0,0,0.1c-3.2,0-6.3,0-9.5,0c-2.8,0-3.3,0.4-3.4,3.2c0,5.4-0.1,10.9-0.1,16.3
			C117.3,121.3,118.1,122.1,119.8,122.1z"/>
		<path fill="#003399" d="M142.5,233.2c0-2-0.8-2.8-2.9-2.8c-6.4,0.1-12.8,0.1-19.2,0c-2.1,0-3,0.8-3,2.9c0,5.4,0,10.9,0,16.3
			c0,1.9,0.8,2.8,2.7,2.7c3.3,0,6.6,0,10,0c3.3,0,6.6,0,10,0c1.8,0,2.6-0.8,2.6-2.6C142.5,244.2,142.5,238.7,142.5,233.2z"/>
		<path fill="#003399" d="M120.3,208.8c3.2-0.1,6.5,0,9.7,0c3.3,0,6.6,0,10,0c1.7,0,2.5-0.7,2.5-2.4c0-5.6,0-11.2,0-16.8
			c0-1.6-0.8-2.4-2.4-2.4c-6.7,0-13.4,0-20.2,0c-1.8,0-2.6,0.9-2.6,2.7c0,5.4,0,10.7,0,16.1C117.4,208,118.3,208.8,120.3,208.8z"/>
		<path fill="#003399" d="M391.9,58.4l-3.4-19.2c-4.2-24.1-27.2-40.3-51.4-36.1l-293,51.3c0,0.1,0.1,0.1,0.1,0.2
			C21.5,56.4,3.5,75.5,3.5,98.8v155.1c0,24.5,19.9,44.4,44.4,44.4h325.8c24.5,0,44.4-19.9,44.4-44.4V98.8
			C418.1,80.8,407.3,65.3,391.9,58.4z M338.6,29.9c11.5-2,22.4,5.7,24.4,17.1l1.3,7.5H198.1L338.6,29.9z M391.5,250.6
			c0,11.6-9.4,21.1-21.1,21.1H51.1c-11.6,0-21.1-9.4-21.1-21.1V102.1C30,90.4,39.5,81,51.1,81h319.4c11.6,0,21.1,9.4,21.1,21.1
			V250.6z"/>
	</g>
</g>
</svg>
