<?xml version="1.0" encoding="utf-8"?>
<!-- Generator: Adobe Illustrator 28.0.0, SVG Export Plug-In . SVG Version: 6.00 Build 0)  -->
<svg version="1.1" id="Layer_5" xmlns="http://www.w3.org/2000/svg" xmlns:xlink="http://www.w3.org/1999/xlink" x="0px" y="0px"
	 viewBox="0 0 495.7 496.2" enable-background="new 0 0 495.7 496.2" xml:space="preserve">
<g>
	<path fill="#888888" d="M8.5,124.3c0.6-37,15.2-68.4,39.7-95.4c4.4-4.8,10.6-9,16.7-10.8c13.8-4,28.1-6.5,42.2-9.3
		c7.3-1.4,12.7,2,16.4,8.2c2.4,3.9,4.7,7.8,7,11.8c15.2,26.2,30.2,52.6,45.7,78.6c8.6,14.5,8.7,21.2-3.4,33.1
		c-9.4,9.3-20,17.4-30,26.2c-5.1,4.4-9.9,9.2-14.8,13.8c-7.3,6.8-9.2,14.8-4.2,23.6c8,14.2,15.8,28.4,24.5,42.1
		c30,47.4,70,84.4,118.7,112c9,5.1,17.9,10.2,27.1,14.9c7.2,3.7,14.1,2.4,19.6-3.4c8.5-9.1,16.5-18.7,24.8-28
		c5.8-6.5,11.4-13.3,17.7-19.2c11.9-11.1,17.8-11.2,31.8-2.9c23.7,14,47.5,27.9,71.3,41.8c6.7,3.9,13.5,7.6,20.1,11.6
		c5.8,3.4,8.4,8.5,8,15.4c-1.1,16.4-4,32.5-11.3,47.1c-3.7,7.5-10.3,14.2-17,19.4c-27.1,21.2-57.4,34.3-92.7,33
		c-18.8-0.7-36.6-6.2-54.2-12.6c-29.2-10.8-58.7-20.6-85.5-36.9c-36.3-22.2-68.2-49.8-97.9-80c-28.3-28.8-54.6-59.4-74.2-94.9
		c-20.2-36.6-34-75.8-44.2-116.3c-1-3.8-1.3-7.8-1.6-11.8C8.3,131.5,8.5,127.9,8.5,124.3z"/>
</g>
</svg>
