<?xml version="1.0" encoding="utf-8"?>
<!-- Generator: Adobe Illustrator 28.0.0, SVG Export Plug-In . SVG Version: 6.00 Build 0)  -->
<svg version="1.1" id="Layer_5" xmlns="http://www.w3.org/2000/svg" xmlns:xlink="http://www.w3.org/1999/xlink" x="0px" y="0px"
	 viewBox="0 0 477.2 495.1" enable-background="new 0 0 477.2 495.1" xml:space="preserve">
<g>
	<path fill="#003399" d="M167,485.7c-33.8,0-67.6,0.2-101.3-0.1c-27.2-0.2-48.8-17.6-55.1-44c-1-4.3-1.5-8.9-1.5-13.3
		c-0.1-25.3-0.1-50.6,0-75.9c0.2-43.5,28.8-79.7,71.1-89.9c8.9-2.2,17.8-4.1,24.4-11.2c6.5-7,10.3-14.9,10.3-24.6
		c0-9.9,0.4-19.8,0.3-29.7c0-1.2-1.1-2.5-2-3.4c-18.2-17.4-29.5-38.5-33.5-63.3c-1.3-7.9-1.2-15.9-1.4-23.9
		c-0.2-12.5-0.7-25,0.2-37.5c2-25.4,16.5-41.3,39.9-50.2C153.3,5.4,187.8,6.2,222,21c22,9.5,33.4,26.4,34.2,49.9
		c0.7,18.9,0.8,37.9-0.6,56.6c-2,26.9-13.7,49.6-33.6,68.1c-1.4,1.3-2.6,3.7-2.7,5.6c-0.3,8.8-0.2,17.6-0.1,26.4
		c0.2,14.6,10.5,28,24.5,32.1c8.3,2.5,16.9,4,24.7,7.5c36.1,16.1,55,44.4,56.4,83.7c0.9,26.1,0.3,52.2,0.1,78.3
		c-0.2,31.1-24.6,55.7-55.7,56.4c-0.6,0-1.3,0-1.9,0C233.9,485.7,200.5,485.7,167,485.7C167,485.7,167,485.7,167,485.7z M76.9,470.6
		c60.5,0,120.1,0,180.2,0c0-2,0-3.8,0-5.5c0-17.5,0-34.9,0-52.4c0-5.9,3.2-9.8,7.6-9.8c4.6,0,7.3,3.7,7.3,9.9c0,17.5,0,34.9,0,52.4
		c0,1.7,0,3.5,0,5.2c1,0,1.4,0.1,1.9,0c10.1-1.4,18.3-6.1,25.3-13.4c8.6-9,11.5-20.5,11.9-31.9c1-24.8,0.5-49.6,0.2-74.4
		c-0.4-30.5-20.5-59.1-48.8-70.5c-3.7-1.5-5.5-0.8-7.9,2.3c-20.9,27.7-42,55.3-63.1,82.9c-3.4,4.4-6.7,8.9-10.1,13.3
		c20,13.7,26.3,27,21.2,44.3c-4.3,14.8-18.1,25.6-33.3,26.1c-16.3,0.5-30.3-8.7-35.9-23.7c-2.7-7.1-3.2-14.3-1.2-21.7
		c3.2-11.7,10.8-19.6,21.6-24.8c-0.8-1.1-1.2-1.7-1.7-2.4c-24.2-31.7-48.4-63.4-72.4-95.1c-2-2.6-3.7-2.7-6.4-1.6
		c-26.3,11-43,30.3-48.1,58.4c-2,11.4-1.4,23.3-1.5,34.9c-0.1,20-0.4,40,0.3,60c0.7,20,18.5,37.1,37.5,37c0-4.6,0-9.2,0-13.8
		c0-15.1,0-30.1,0-45.2c0-5.5,2.8-8.9,7.2-9c4.6-0.2,7.6,3.3,7.8,9c0,1.1,0,2.2,0,3.4c0,14.9,0,29.8,0,44.7
		C76.9,463,76.9,466.7,76.9,470.6z M241.2,118.5c-0.8-0.3-1.4-0.6-2-0.7c-30.6-5-58.9-15.4-84.5-33.2c-7.2-5-15.5-6.5-24.3-4.9
		c-14.7,2.8-25.9,11.3-35.7,22c-0.9,0.9-1.3,2.6-1.4,3.9c-1.7,32,9.6,58.7,33.4,79.9c16.5,14.7,35.8,21.7,58.1,15.6
		C216.6,192.3,243.3,153.1,241.2,118.5z M166.3,372.4c17.8-23.3,35.5-46.4,53.1-69.4c-8.1,5.5-15.5,11.7-22.9,17.8
		c-5.7,4.7-9,4.3-13.7-1.6c-4.9-6.2-9.8-12.5-15.1-19.1c-3.7,5.5-7.3,10.4-10.4,15.6c-7,11.9-11.3,12.7-21.8,3.1
		c-7.2-6.6-14.8-12.8-22.3-19.1c-0.2,0.2-0.4,0.4-0.6,0.6C130.5,324.2,148.2,348.1,166.3,372.4z M103.3,272.1
		c13.9,12,27.9,24,42.1,36.2c4.1-6.4,8-12.4,11.9-18.6c-12.8-11-25.2-21.7-37.5-32.4C114.2,262.3,109,267,103.3,272.1z M214.8,257.2
		c-11.9,10.1-24.1,20.5-36.6,31c4.7,5.9,8.9,11.4,13.4,17.1c13.5-11.5,26.6-22.7,39.2-33.5C225.4,266.8,220.2,262.2,214.8,257.2z"/>
	<path fill="#E31E24" d="M353.6,237.3c0,2.5,0,4.5,0,6.5c0,76.7,0,153.4,0,230.1c0,2.4-0.1,4.8-0.9,7.1c-1.2,3.7-4.2,5.1-8,4.6
		c-3.8-0.5-6-2.8-6.3-6.7c-0.1-1.3-0.1-2.6-0.1-3.8c0-107.8,0-215.5,0-323.3c0-1.6-0.1-3.2,0.2-4.8c0.8-5,7.4-8.3,11.4-5.2
		c11.9,9.3,24.5,8.3,37.6,3.8c12.3-4.2,24.7-8.6,37.3-12c13.8-3.8,27.1-1.3,38.6,7.4c2.4,1.8,4.5,5.7,4.5,8.7
		c0.4,24.5,0.2,49,0.2,73.5c0,7.4-6.6,11.4-12.5,7c-11.7-8.8-24-8.1-36.8-3.8c-5.3,1.8-10.6,3.6-15.7,5.7
		C387.3,238.5,371.3,242.6,353.6,237.3z"/>
</g>
</svg>
